<?xml version="1.0" encoding="UTF-8" standalone="no"?>
<!DOCTYPE svg PUBLIC "-//W3C//DTD SVG 1.1//EN" "http://www.w3.org/Graphics/SVG/1.1/DTD/svg11.dtd">
<svg width="100%" height="100%" viewBox="0 0 511 461" version="1.1" xmlns="http://www.w3.org/2000/svg" xmlns:xlink="http://www.w3.org/1999/xlink" xml:space="preserve" xmlns:serif="http://www.serif.com/" style="fill-rule:evenodd;clip-rule:evenodd;stroke-linejoin:round;stroke-miterlimit:2;">
    <g transform="matrix(1,0,0,1,-1615.29,-23.2777)">
        <rect x="1772.47" y="23.278" width="9.521" height="9.521" style="fill:rgb(224,150,0);"/>
    </g>
    <g transform="matrix(1,0,0,1,-1530.3,-23.2777)">
        <rect x="1772.47" y="23.278" width="9.521" height="9.521" style="fill:rgb(224,150,0);"/>
    </g>
    <g transform="matrix(1,0,0,1,-1277.73,-23.2777)">
        <rect x="1772.47" y="23.278" width="9.521" height="9.521" style="fill:rgb(224,150,0);"/>
    </g>
    <g transform="matrix(1,0,0,0.285246,-1530.3,88.9914)">
        <rect x="1772.47" y="23.278" width="9.521" height="9.521" style="fill:rgb(224,150,0);"/>
    </g>
    <g transform="matrix(1,0,0,0.285246,-1282.49,88.9914)">
        <rect x="1772.47" y="23.278" width="9.521" height="9.521" style="fill:rgb(224,150,0);"/>
    </g>
    <g transform="matrix(0.279489,0,0,0.285246,-338.191,41.1181)">
        <rect x="1772.47" y="23.278" width="9.521" height="9.521" style="fill:rgb(224,150,0);"/>
    </g>
    <g transform="matrix(0.279489,0,0,0.285246,-422.92,41.1181)">
        <rect x="1772.47" y="23.278" width="9.521" height="9.521" style="fill:rgb(224,150,0);"/>
    </g>
    <g transform="matrix(0.279489,0,0,0.285246,-253.347,41.1181)">
        <rect x="1772.47" y="23.278" width="9.521" height="9.521" style="fill:rgb(224,150,0);"/>
    </g>
    <g transform="matrix(0.279489,0,0,0.285246,-170.109,41.1181)">
        <rect x="1772.47" y="23.278" width="9.521" height="9.521" style="fill:rgb(224,150,0);"/>
    </g>
    <g transform="matrix(0.279489,0,0,0.285246,-85.3773,41.1181)">
        <rect x="1772.47" y="23.278" width="9.521" height="9.521" style="fill:rgb(224,150,0);"/>
    </g>
    <g transform="matrix(0.279489,0,0,0.285246,-0.645317,41.1181)">
        <rect x="1772.47" y="23.278" width="9.521" height="9.521" style="fill:rgb(224,150,0);"/>
    </g>
    <g transform="matrix(1,0,0,0.285246,-1699.99,88.9914)">
        <rect x="1772.47" y="23.278" width="9.521" height="9.521" style="fill:rgb(224,150,0);"/>
    </g>
    <g transform="matrix(1.64656,0,0,0.285246,-2423.73,123.184)">
        <rect x="1772.47" y="23.278" width="9.521" height="9.521" style="fill:rgb(224,150,0);"/>
    </g>
    <g transform="matrix(9.02577,0,0,0.285246,-15755.9,123.184)">
        <rect x="1772.47" y="23.278" width="9.521" height="9.521" style="fill:rgb(224,150,0);"/>
    </g>
    <g transform="matrix(0.288275,0,0,0.285246,-510.954,183.293)">
        <rect x="1772.47" y="23.278" width="9.521" height="9.521" style="fill:rgb(224,150,0);"/>
    </g>
    <g transform="matrix(0.288275,0,0,0.285246,-510.954,188.728)">
        <rect x="1772.47" y="23.278" width="9.521" height="9.521" style="fill:rgb(224,150,0);"/>
    </g>
    <g transform="matrix(1.00336,0,0,0.285246,-1706.01,325.395)">
        <rect x="1772.47" y="23.278" width="9.521" height="9.521" style="fill:rgb(224,150,0);"/>
    </g>
    <g transform="matrix(0.285649,0,0,0.285246,-506.304,373.238)">
        <rect x="1772.47" y="23.278" width="9.521" height="9.521" style="fill:rgb(224,150,0);"/>
    </g>
    <g transform="matrix(0.285649,0,0,0.285246,-433.885,421.047)">
        <rect x="1772.47" y="23.278" width="9.521" height="9.521" style="fill:rgb(224,150,0);"/>
    </g>
    <g transform="matrix(0.285649,0,0,0.285246,-349.148,421.047)">
        <rect x="1772.47" y="23.278" width="9.521" height="9.521" style="fill:rgb(224,150,0);"/>
    </g>
    <g transform="matrix(2.7287,0,0,0.285246,-4679.41,451.071)">
        <rect x="1772.47" y="23.278" width="9.521" height="9.521" style="fill:rgb(224,150,0);"/>
    </g>
    <g transform="matrix(0.285649,0,0,0.285246,-264.412,421.047)">
        <rect x="1772.47" y="23.278" width="9.521" height="9.521" style="fill:rgb(224,150,0);"/>
    </g>
    <g transform="matrix(0.285649,0,0,0.285246,-181.045,421.047)">
        <rect x="1772.47" y="23.278" width="9.521" height="9.521" style="fill:rgb(224,150,0);"/>
    </g>
    <g transform="matrix(0.285649,0,0,0.285246,-96.3456,421.047)">
        <rect x="1772.47" y="23.278" width="9.521" height="9.521" style="fill:rgb(224,150,0);"/>
    </g>
    <g transform="matrix(0.285649,0,0,0.285246,-11.6461,421.047)">
        <rect x="1772.47" y="23.278" width="9.521" height="9.521" style="fill:rgb(224,150,0);"/>
    </g>
    <g transform="matrix(0.285649,0,0,0.285246,-433.885,373.238)">
        <rect x="1772.47" y="23.278" width="9.521" height="9.521" style="fill:rgb(224,150,0);"/>
    </g>
    <g transform="matrix(0.285649,0,0,0.285246,-421.574,373.238)">
        <rect x="1772.47" y="23.278" width="9.521" height="9.521" style="fill:rgb(224,150,0);"/>
    </g>
    <g transform="matrix(0.285649,0,0,0.285246,-264.427,373.238)">
        <rect x="1772.47" y="23.278" width="9.521" height="9.521" style="fill:rgb(224,150,0);"/>
    </g>
    <g transform="matrix(0.285649,0,0,0.285246,-253.505,373.238)">
        <rect x="1772.47" y="23.278" width="9.521" height="9.521" style="fill:rgb(224,150,0);"/>
    </g>
    <g transform="matrix(0.285649,0,0,0.285246,-181.071,373.238)">
        <rect x="1772.47" y="23.278" width="9.521" height="9.521" style="fill:rgb(224,150,0);"/>
    </g>
    <g transform="matrix(0.285649,0,0,0.285246,-96.2584,373.238)">
        <rect x="1772.47" y="23.278" width="9.521" height="9.521" style="fill:rgb(224,150,0);"/>
    </g>
    <g transform="matrix(0.285649,0,0,0.285246,-84.0281,373.238)">
        <rect x="1772.47" y="23.278" width="9.521" height="9.521" style="fill:rgb(224,150,0);"/>
    </g>
    <g transform="matrix(0.285649,0,0,0.285246,-11.5987,373.238)">
        <rect x="1772.47" y="23.278" width="9.521" height="9.521" style="fill:rgb(224,150,0);"/>
    </g>
    <g transform="matrix(0.285649,0,0,0.285246,0.685458,373.238)">
        <rect x="1772.47" y="23.278" width="9.521" height="9.521" style="fill:rgb(224,150,0);"/>
    </g>
    <g transform="matrix(0.288275,0,0,0.285246,-438.53,183.293)">
        <rect x="1772.47" y="23.278" width="9.521" height="9.521" style="fill:rgb(224,150,0);"/>
    </g>
    <g transform="matrix(0.288275,0,0,0.285246,-353.815,183.293)">
        <rect x="1772.47" y="23.278" width="9.521" height="9.521" style="fill:rgb(224,150,0);"/>
    </g>
    <g transform="matrix(0.288275,0,0,0.285246,-269.1,183.293)">
        <rect x="1772.47" y="23.278" width="9.521" height="9.521" style="fill:rgb(224,150,0);"/>
    </g>
    <g transform="matrix(0.288275,0,0,0.285246,-16.2495,183.293)">
        <rect x="1772.47" y="23.278" width="9.521" height="9.521" style="fill:rgb(224,150,0);"/>
    </g>
    <g transform="matrix(0.288275,0,0,0.285246,-185.724,183.293)">
        <rect x="1772.47" y="23.278" width="9.521" height="9.521" style="fill:rgb(224,150,0);"/>
    </g>
    <g transform="matrix(0.288275,0,0,0.285246,-100.995,183.293)">
        <rect x="1772.47" y="23.278" width="9.521" height="9.521" style="fill:rgb(224,150,0);"/>
    </g>
    <g transform="matrix(0.288275,0,0,0.285246,-258.165,183.293)">
        <rect x="1772.47" y="23.278" width="9.521" height="9.521" style="fill:rgb(224,150,0);"/>
    </g>
    <g transform="matrix(0.288275,0,0,0.285246,-3.97608,183.293)">
        <rect x="1772.47" y="23.278" width="9.521" height="9.521" style="fill:rgb(224,150,0);"/>
    </g>
    <g transform="matrix(0.288275,0,0,0.285246,-269.1,188.773)">
        <rect x="1772.47" y="23.278" width="9.521" height="9.521" style="fill:rgb(224,150,0);"/>
    </g>
    <g transform="matrix(0.288275,0,0,0.285246,-269.1,231.123)">
        <rect x="1772.47" y="23.278" width="9.521" height="9.521" style="fill:rgb(224,150,0);"/>
    </g>
    <g transform="matrix(0.288275,0,0,0.285246,-185.702,231.123)">
        <rect x="1772.47" y="23.278" width="9.521" height="9.521" style="fill:rgb(224,150,0);"/>
    </g>
    <g transform="matrix(0.288275,0,0,0.285246,-100.995,231.123)">
        <rect x="1772.47" y="23.278" width="9.521" height="9.521" style="fill:rgb(224,150,0);"/>
    </g>
    <g transform="matrix(0.288275,0,0,0.285246,-16.2888,231.123)">
        <rect x="1772.47" y="23.278" width="9.521" height="9.521" style="fill:rgb(224,150,0);"/>
    </g>
    <g transform="matrix(0.288275,0,0,0.285246,-16.2495,188.773)">
        <rect x="1772.47" y="23.278" width="9.521" height="9.521" style="fill:rgb(224,150,0);"/>
    </g>
    <g transform="matrix(0.288275,0,0,0.285246,-258.165,188.773)">
        <rect x="1772.47" y="23.278" width="9.521" height="9.521" style="fill:rgb(224,150,0);"/>
    </g>
    <g transform="matrix(0.288275,0,0,0.285246,-3.97608,188.773)">
        <rect x="1772.47" y="23.278" width="9.521" height="9.521" style="fill:rgb(224,150,0);"/>
    </g>
    <g transform="matrix(1,0,0,1,-1615.29,-23.2777)">
        <g transform="matrix(0.748615,0,0,0.12985,783.055,471.088)">
            <rect x="1772.47" y="23.278" width="9.521" height="9.521" style="fill:rgb(224,150,0);"/>
        </g>
        <g transform="matrix(3.03745e-17,-0.496053,0.249526,1.52791e-17,2105.38,1359.31)">
            <rect x="1772.47" y="23.278" width="9.521" height="9.521" style="fill:white;"/>
        </g>
        <g transform="matrix(3.03745e-17,-0.496053,0.253455,1.55197e-17,2113.52,1359.31)">
            <rect x="1772.47" y="23.278" width="9.521" height="9.521" style="fill:white;"/>
        </g>
        <g transform="matrix(3.03745e-17,-0.496053,0.239389,1.46584e-17,2107.99,1359.31)">
            <rect x="1772.47" y="23.278" width="9.521" height="9.521"/>
        </g>
        <g transform="matrix(3.03745e-17,-0.496053,0.24823,1.51997e-17,2116.05,1359.31)">
            <rect x="1772.47" y="23.278" width="9.521" height="9.521"/>
        </g>
        <g transform="matrix(0.241567,0,0,0.12985,1679.48,473.494)">
            <rect x="1772.47" y="23.278" width="9.521" height="9.521" style="fill:rgb(224,150,0);"/>
        </g>
        <g transform="matrix(0.126689,0,0,0.12985,1892.53,473.494)">
            <rect x="1772.47" y="23.278" width="9.521" height="9.521" style="fill:rgb(224,150,0);"/>
        </g>
        <g transform="matrix(3.03745e-17,-0.496053,0.12985,7.95101e-18,2106.93,1359.31)">
            <rect x="1772.47" y="23.278" width="9.521" height="9.521" style="fill:rgb(224,150,0);"/>
        </g>
        <g transform="matrix(2.28562e-17,-0.37327,0.12985,7.95101e-18,2103.39,1141.68)">
            <rect x="1772.47" y="23.278" width="9.521" height="9.521" style="fill:rgb(224,150,0);"/>
        </g>
        <g transform="matrix(3.03745e-17,-0.496053,0.12985,7.95101e-18,2115.26,1359.31)">
            <rect x="1772.47" y="23.278" width="9.521" height="9.521" style="fill:rgb(224,150,0);"/>
        </g>
        <g transform="matrix(3.03745e-17,-0.496053,0.12985,7.95101e-18,2112.82,1359.31)">
            <rect x="1772.47" y="23.278" width="9.521" height="9.521" style="fill:rgb(224,150,0);"/>
        </g>
        <g transform="matrix(3.03745e-17,-0.496053,0.12985,7.95101e-18,2121.15,1359.31)">
            <rect x="1772.47" y="23.278" width="9.521" height="9.521" style="fill:rgb(224,150,0);"/>
        </g>
        <g transform="matrix(0.748615,0,0,0.12985,791.388,471.088)">
            <rect x="1772.47" y="23.278" width="9.521" height="9.521" style="fill:rgb(224,150,0);"/>
        </g>
        <g transform="matrix(0.748615,0,0,0.12985,783.055,477.047)">
            <rect x="1772.47" y="23.278" width="9.521" height="9.521" style="fill:rgb(224,150,0);"/>
        </g>
        <g transform="matrix(0.748615,0,0,0.12985,791.388,477.047)">
            <rect x="1772.47" y="23.278" width="9.521" height="9.521" style="fill:rgb(224,150,0);"/>
        </g>
    </g>
    <g transform="matrix(1,0,0,1,-1868.74,-97.0854)">
        <g transform="matrix(0.748615,0,0,0.12985,783.055,471.088)">
            <rect x="1772.47" y="23.278" width="9.521" height="9.521" style="fill:rgb(224,150,0);"/>
        </g>
        <g transform="matrix(3.03745e-17,-0.496053,0.249526,1.52791e-17,2105.38,1359.31)">
            <rect x="1772.47" y="23.278" width="9.521" height="9.521" style="fill:white;"/>
        </g>
        <g transform="matrix(3.03745e-17,-0.496053,0.253455,1.55197e-17,2113.52,1359.31)">
            <rect x="1772.47" y="23.278" width="9.521" height="9.521" style="fill:white;"/>
        </g>
        <g transform="matrix(3.03745e-17,-0.496053,0.239389,1.46584e-17,2107.99,1359.31)">
            <rect x="1772.47" y="23.278" width="9.521" height="9.521"/>
        </g>
        <g transform="matrix(3.03745e-17,-0.496053,0.24823,1.51997e-17,2116.05,1359.31)">
            <rect x="1772.47" y="23.278" width="9.521" height="9.521"/>
        </g>
        <g transform="matrix(0.241567,0,0,0.12985,1679.48,473.494)">
            <rect x="1772.47" y="23.278" width="9.521" height="9.521" style="fill:rgb(224,150,0);"/>
        </g>
        <g transform="matrix(0.126689,0,0,0.12985,1892.53,473.494)">
            <rect x="1772.47" y="23.278" width="9.521" height="9.521" style="fill:rgb(224,150,0);"/>
        </g>
        <g transform="matrix(3.03745e-17,-0.496053,0.12985,7.95101e-18,2106.93,1359.31)">
            <rect x="1772.47" y="23.278" width="9.521" height="9.521" style="fill:rgb(224,150,0);"/>
        </g>
        <g transform="matrix(2.28562e-17,-0.37327,0.12985,7.95101e-18,2103.39,1141.68)">
            <rect x="1772.47" y="23.278" width="9.521" height="9.521" style="fill:rgb(224,150,0);"/>
        </g>
        <g transform="matrix(3.03745e-17,-0.496053,0.12985,7.95101e-18,2115.26,1359.31)">
            <rect x="1772.47" y="23.278" width="9.521" height="9.521" style="fill:rgb(224,150,0);"/>
        </g>
        <g transform="matrix(3.03745e-17,-0.496053,0.12985,7.95101e-18,2112.82,1359.31)">
            <rect x="1772.47" y="23.278" width="9.521" height="9.521" style="fill:rgb(224,150,0);"/>
        </g>
        <g transform="matrix(3.03745e-17,-0.496053,0.12985,7.95101e-18,2121.15,1359.31)">
            <rect x="1772.47" y="23.278" width="9.521" height="9.521" style="fill:rgb(224,150,0);"/>
        </g>
        <g transform="matrix(0.748615,0,0,0.12985,791.388,471.088)">
            <rect x="1772.47" y="23.278" width="9.521" height="9.521" style="fill:rgb(224,150,0);"/>
        </g>
        <g transform="matrix(0.748615,0,0,0.12985,783.055,477.047)">
            <rect x="1772.47" y="23.278" width="9.521" height="9.521" style="fill:rgb(224,150,0);"/>
        </g>
        <g transform="matrix(0.748615,0,0,0.12985,791.388,477.047)">
            <rect x="1772.47" y="23.278" width="9.521" height="9.521" style="fill:rgb(224,150,0);"/>
        </g>
    </g>
    <g transform="matrix(1,0,0,1,-1689.59,-346.222)">
        <g transform="matrix(0.748615,0,0,0.12985,783.055,471.088)">
            <rect x="1772.47" y="23.278" width="9.521" height="9.521" style="fill:rgb(224,150,0);"/>
        </g>
        <g transform="matrix(3.03745e-17,-0.496053,0.249526,1.52791e-17,2105.38,1359.31)">
            <rect x="1772.47" y="23.278" width="9.521" height="9.521" style="fill:white;"/>
        </g>
        <g transform="matrix(3.03745e-17,-0.496053,0.253455,1.55197e-17,2113.52,1359.31)">
            <rect x="1772.47" y="23.278" width="9.521" height="9.521" style="fill:white;"/>
        </g>
        <g transform="matrix(3.03745e-17,-0.496053,0.239389,1.46584e-17,2107.99,1359.31)">
            <rect x="1772.47" y="23.278" width="9.521" height="9.521"/>
        </g>
        <g transform="matrix(3.03745e-17,-0.496053,0.24823,1.51997e-17,2116.05,1359.31)">
            <rect x="1772.47" y="23.278" width="9.521" height="9.521"/>
        </g>
        <g transform="matrix(0.241567,0,0,0.12985,1679.48,473.494)">
            <rect x="1772.47" y="23.278" width="9.521" height="9.521" style="fill:rgb(224,150,0);"/>
        </g>
        <g transform="matrix(0.126689,0,0,0.12985,1892.53,473.494)">
            <rect x="1772.47" y="23.278" width="9.521" height="9.521" style="fill:rgb(224,150,0);"/>
        </g>
        <g transform="matrix(3.03745e-17,-0.496053,0.12985,7.95101e-18,2106.93,1359.31)">
            <rect x="1772.47" y="23.278" width="9.521" height="9.521" style="fill:rgb(224,150,0);"/>
        </g>
        <g transform="matrix(2.28562e-17,-0.37327,0.12985,7.95101e-18,2103.39,1141.68)">
            <rect x="1772.47" y="23.278" width="9.521" height="9.521" style="fill:rgb(224,150,0);"/>
        </g>
        <g transform="matrix(3.03745e-17,-0.496053,0.12985,7.95101e-18,2115.26,1359.31)">
            <rect x="1772.47" y="23.278" width="9.521" height="9.521" style="fill:rgb(224,150,0);"/>
        </g>
        <g transform="matrix(3.03745e-17,-0.496053,0.12985,7.95101e-18,2112.82,1359.31)">
            <rect x="1772.47" y="23.278" width="9.521" height="9.521" style="fill:rgb(224,150,0);"/>
        </g>
        <g transform="matrix(3.03745e-17,-0.496053,0.12985,7.95101e-18,2121.15,1359.31)">
            <rect x="1772.47" y="23.278" width="9.521" height="9.521" style="fill:rgb(224,150,0);"/>
        </g>
        <g transform="matrix(0.748615,0,0,0.12985,791.388,471.088)">
            <rect x="1772.47" y="23.278" width="9.521" height="9.521" style="fill:rgb(224,150,0);"/>
        </g>
        <g transform="matrix(0.748615,0,0,0.12985,783.055,477.047)">
            <rect x="1772.47" y="23.278" width="9.521" height="9.521" style="fill:rgb(224,150,0);"/>
        </g>
        <g transform="matrix(0.748615,0,0,0.12985,791.388,477.047)">
            <rect x="1772.47" y="23.278" width="9.521" height="9.521" style="fill:rgb(224,150,0);"/>
        </g>
    </g>
    <g transform="matrix(1,0,0,1,-2078.29,-286.418)">
        <g transform="matrix(0.748615,0,0,0.12985,783.055,471.088)">
            <rect x="1772.47" y="23.278" width="9.521" height="9.521" style="fill:rgb(224,150,0);"/>
        </g>
        <g transform="matrix(3.03745e-17,-0.496053,0.249526,1.52791e-17,2105.38,1359.31)">
            <rect x="1772.47" y="23.278" width="9.521" height="9.521" style="fill:white;"/>
        </g>
        <g transform="matrix(3.03745e-17,-0.496053,0.253455,1.55197e-17,2113.52,1359.31)">
            <rect x="1772.47" y="23.278" width="9.521" height="9.521" style="fill:white;"/>
        </g>
        <g transform="matrix(3.03745e-17,-0.496053,0.239389,1.46584e-17,2107.99,1359.31)">
            <rect x="1772.47" y="23.278" width="9.521" height="9.521"/>
        </g>
        <g transform="matrix(3.03745e-17,-0.496053,0.24823,1.51997e-17,2116.05,1359.31)">
            <rect x="1772.47" y="23.278" width="9.521" height="9.521"/>
        </g>
        <g transform="matrix(0.241567,0,0,0.12985,1679.48,473.494)">
            <rect x="1772.47" y="23.278" width="9.521" height="9.521" style="fill:rgb(224,150,0);"/>
        </g>
        <g transform="matrix(0.126689,0,0,0.12985,1892.53,473.494)">
            <rect x="1772.47" y="23.278" width="9.521" height="9.521" style="fill:rgb(224,150,0);"/>
        </g>
        <g transform="matrix(3.03745e-17,-0.496053,0.12985,7.95101e-18,2106.93,1359.31)">
            <rect x="1772.47" y="23.278" width="9.521" height="9.521" style="fill:rgb(224,150,0);"/>
        </g>
        <g transform="matrix(2.28562e-17,-0.37327,0.12985,7.95101e-18,2103.39,1141.68)">
            <rect x="1772.47" y="23.278" width="9.521" height="9.521" style="fill:rgb(224,150,0);"/>
        </g>
        <g transform="matrix(3.03745e-17,-0.496053,0.12985,7.95101e-18,2115.26,1359.31)">
            <rect x="1772.47" y="23.278" width="9.521" height="9.521" style="fill:rgb(224,150,0);"/>
        </g>
        <g transform="matrix(3.03745e-17,-0.496053,0.12985,7.95101e-18,2112.82,1359.31)">
            <rect x="1772.47" y="23.278" width="9.521" height="9.521" style="fill:rgb(224,150,0);"/>
        </g>
        <g transform="matrix(3.03745e-17,-0.496053,0.12985,7.95101e-18,2121.15,1359.31)">
            <rect x="1772.47" y="23.278" width="9.521" height="9.521" style="fill:rgb(224,150,0);"/>
        </g>
        <g transform="matrix(0.748615,0,0,0.12985,791.388,471.088)">
            <rect x="1772.47" y="23.278" width="9.521" height="9.521" style="fill:rgb(224,150,0);"/>
        </g>
        <g transform="matrix(0.748615,0,0,0.12985,783.055,477.047)">
            <rect x="1772.47" y="23.278" width="9.521" height="9.521" style="fill:rgb(224,150,0);"/>
        </g>
        <g transform="matrix(0.748615,0,0,0.12985,791.388,477.047)">
            <rect x="1772.47" y="23.278" width="9.521" height="9.521" style="fill:rgb(224,150,0);"/>
        </g>
    </g>
    <g transform="matrix(1,0,0,1,-2037.91,-97.0854)">
        <g transform="matrix(0.748615,0,0,0.12985,783.055,471.088)">
            <rect x="1772.47" y="23.278" width="9.521" height="9.521" style="fill:rgb(224,150,0);"/>
        </g>
        <g transform="matrix(3.03745e-17,-0.496053,0.249526,1.52791e-17,2105.38,1359.31)">
            <rect x="1772.47" y="23.278" width="9.521" height="9.521" style="fill:white;"/>
        </g>
        <g transform="matrix(3.03745e-17,-0.496053,0.253455,1.55197e-17,2113.52,1359.31)">
            <rect x="1772.47" y="23.278" width="9.521" height="9.521" style="fill:white;"/>
        </g>
        <g transform="matrix(3.03745e-17,-0.496053,0.239389,1.46584e-17,2107.99,1359.31)">
            <rect x="1772.47" y="23.278" width="9.521" height="9.521"/>
        </g>
        <g transform="matrix(3.03745e-17,-0.496053,0.24823,1.51997e-17,2116.05,1359.31)">
            <rect x="1772.47" y="23.278" width="9.521" height="9.521"/>
        </g>
        <g transform="matrix(0.241567,0,0,0.12985,1679.48,473.494)">
            <rect x="1772.47" y="23.278" width="9.521" height="9.521" style="fill:rgb(224,150,0);"/>
        </g>
        <g transform="matrix(0.126689,0,0,0.12985,1892.53,473.494)">
            <rect x="1772.47" y="23.278" width="9.521" height="9.521" style="fill:rgb(224,150,0);"/>
        </g>
        <g transform="matrix(3.03745e-17,-0.496053,0.12985,7.95101e-18,2106.93,1359.31)">
            <rect x="1772.47" y="23.278" width="9.521" height="9.521" style="fill:rgb(224,150,0);"/>
        </g>
        <g transform="matrix(2.28562e-17,-0.37327,0.12985,7.95101e-18,2103.39,1141.68)">
            <rect x="1772.47" y="23.278" width="9.521" height="9.521" style="fill:rgb(224,150,0);"/>
        </g>
        <g transform="matrix(3.03745e-17,-0.496053,0.12985,7.95101e-18,2115.26,1359.31)">
            <rect x="1772.47" y="23.278" width="9.521" height="9.521" style="fill:rgb(224,150,0);"/>
        </g>
        <g transform="matrix(3.03745e-17,-0.496053,0.12985,7.95101e-18,2112.82,1359.31)">
            <rect x="1772.47" y="23.278" width="9.521" height="9.521" style="fill:rgb(224,150,0);"/>
        </g>
        <g transform="matrix(3.03745e-17,-0.496053,0.12985,7.95101e-18,2121.15,1359.31)">
            <rect x="1772.47" y="23.278" width="9.521" height="9.521" style="fill:rgb(224,150,0);"/>
        </g>
        <g transform="matrix(0.748615,0,0,0.12985,791.388,471.088)">
            <rect x="1772.47" y="23.278" width="9.521" height="9.521" style="fill:rgb(224,150,0);"/>
        </g>
        <g transform="matrix(0.748615,0,0,0.12985,783.055,477.047)">
            <rect x="1772.47" y="23.278" width="9.521" height="9.521" style="fill:rgb(224,150,0);"/>
        </g>
        <g transform="matrix(0.748615,0,0,0.12985,791.388,477.047)">
            <rect x="1772.47" y="23.278" width="9.521" height="9.521" style="fill:rgb(224,150,0);"/>
        </g>
    </g>
    <g transform="matrix(1,0,0,1,-1947.21,-27.571)">
        <g transform="matrix(0.748615,0,0,0.12985,783.055,471.088)">
            <rect x="1772.47" y="23.278" width="9.521" height="9.521" style="fill:rgb(224,150,0);"/>
        </g>
        <g transform="matrix(3.03745e-17,-0.496053,0.249526,1.52791e-17,2105.38,1359.31)">
            <rect x="1772.47" y="23.278" width="9.521" height="9.521" style="fill:white;"/>
        </g>
        <g transform="matrix(3.03745e-17,-0.496053,0.253455,1.55197e-17,2113.52,1359.31)">
            <rect x="1772.47" y="23.278" width="9.521" height="9.521" style="fill:white;"/>
        </g>
        <g transform="matrix(3.03745e-17,-0.496053,0.239389,1.46584e-17,2107.99,1359.31)">
            <rect x="1772.47" y="23.278" width="9.521" height="9.521"/>
        </g>
        <g transform="matrix(3.03745e-17,-0.496053,0.24823,1.51997e-17,2116.05,1359.31)">
            <rect x="1772.47" y="23.278" width="9.521" height="9.521"/>
        </g>
        <g transform="matrix(0.241567,0,0,0.12985,1679.48,473.494)">
            <rect x="1772.47" y="23.278" width="9.521" height="9.521" style="fill:rgb(224,150,0);"/>
        </g>
        <g transform="matrix(0.126689,0,0,0.12985,1892.53,473.494)">
            <rect x="1772.47" y="23.278" width="9.521" height="9.521" style="fill:rgb(224,150,0);"/>
        </g>
        <g transform="matrix(3.03745e-17,-0.496053,0.12985,7.95101e-18,2106.93,1359.31)">
            <rect x="1772.47" y="23.278" width="9.521" height="9.521" style="fill:rgb(224,150,0);"/>
        </g>
        <g transform="matrix(2.28562e-17,-0.37327,0.12985,7.95101e-18,2103.39,1141.68)">
            <rect x="1772.47" y="23.278" width="9.521" height="9.521" style="fill:rgb(224,150,0);"/>
        </g>
        <g transform="matrix(3.03745e-17,-0.496053,0.12985,7.95101e-18,2115.26,1359.31)">
            <rect x="1772.47" y="23.278" width="9.521" height="9.521" style="fill:rgb(224,150,0);"/>
        </g>
        <g transform="matrix(3.03745e-17,-0.496053,0.12985,7.95101e-18,2112.82,1359.31)">
            <rect x="1772.47" y="23.278" width="9.521" height="9.521" style="fill:rgb(224,150,0);"/>
        </g>
        <g transform="matrix(3.03745e-17,-0.496053,0.12985,7.95101e-18,2121.15,1359.31)">
            <rect x="1772.47" y="23.278" width="9.521" height="9.521" style="fill:rgb(224,150,0);"/>
        </g>
        <g transform="matrix(0.748615,0,0,0.12985,791.388,471.088)">
            <rect x="1772.47" y="23.278" width="9.521" height="9.521" style="fill:rgb(224,150,0);"/>
        </g>
        <g transform="matrix(0.748615,0,0,0.12985,783.055,477.047)">
            <rect x="1772.47" y="23.278" width="9.521" height="9.521" style="fill:rgb(224,150,0);"/>
        </g>
        <g transform="matrix(0.748615,0,0,0.12985,791.388,477.047)">
            <rect x="1772.47" y="23.278" width="9.521" height="9.521" style="fill:rgb(224,150,0);"/>
        </g>
    </g>
    <g transform="matrix(1,0,0,1,-1791.14,-245.463)">
        <g transform="matrix(0.748615,0,0,0.12985,783.055,471.088)">
            <rect x="1772.47" y="23.278" width="9.521" height="9.521" style="fill:rgb(224,150,0);"/>
        </g>
        <g transform="matrix(3.03745e-17,-0.496053,0.249526,1.52791e-17,2105.38,1359.31)">
            <rect x="1772.47" y="23.278" width="9.521" height="9.521" style="fill:white;"/>
        </g>
        <g transform="matrix(3.03745e-17,-0.496053,0.253455,1.55197e-17,2113.52,1359.31)">
            <rect x="1772.47" y="23.278" width="9.521" height="9.521" style="fill:white;"/>
        </g>
        <g transform="matrix(3.03745e-17,-0.496053,0.239389,1.46584e-17,2107.99,1359.31)">
            <rect x="1772.47" y="23.278" width="9.521" height="9.521"/>
        </g>
        <g transform="matrix(3.03745e-17,-0.496053,0.24823,1.51997e-17,2116.05,1359.31)">
            <rect x="1772.47" y="23.278" width="9.521" height="9.521"/>
        </g>
        <g transform="matrix(0.241567,0,0,0.12985,1679.48,473.494)">
            <rect x="1772.47" y="23.278" width="9.521" height="9.521" style="fill:rgb(224,150,0);"/>
        </g>
        <g transform="matrix(0.126689,0,0,0.12985,1892.53,473.494)">
            <rect x="1772.47" y="23.278" width="9.521" height="9.521" style="fill:rgb(224,150,0);"/>
        </g>
        <g transform="matrix(3.03745e-17,-0.496053,0.12985,7.95101e-18,2106.93,1359.31)">
            <rect x="1772.47" y="23.278" width="9.521" height="9.521" style="fill:rgb(224,150,0);"/>
        </g>
        <g transform="matrix(2.28562e-17,-0.37327,0.12985,7.95101e-18,2103.39,1141.68)">
            <rect x="1772.47" y="23.278" width="9.521" height="9.521" style="fill:rgb(224,150,0);"/>
        </g>
        <g transform="matrix(3.03745e-17,-0.496053,0.12985,7.95101e-18,2115.26,1359.31)">
            <rect x="1772.47" y="23.278" width="9.521" height="9.521" style="fill:rgb(224,150,0);"/>
        </g>
        <g transform="matrix(3.03745e-17,-0.496053,0.12985,7.95101e-18,2112.82,1359.31)">
            <rect x="1772.47" y="23.278" width="9.521" height="9.521" style="fill:rgb(224,150,0);"/>
        </g>
        <g transform="matrix(3.03745e-17,-0.496053,0.12985,7.95101e-18,2121.15,1359.31)">
            <rect x="1772.47" y="23.278" width="9.521" height="9.521" style="fill:rgb(224,150,0);"/>
        </g>
        <g transform="matrix(0.748615,0,0,0.12985,791.388,471.088)">
            <rect x="1772.47" y="23.278" width="9.521" height="9.521" style="fill:rgb(224,150,0);"/>
        </g>
        <g transform="matrix(0.748615,0,0,0.12985,783.055,477.047)">
            <rect x="1772.47" y="23.278" width="9.521" height="9.521" style="fill:rgb(224,150,0);"/>
        </g>
        <g transform="matrix(0.748615,0,0,0.12985,791.388,477.047)">
            <rect x="1772.47" y="23.278" width="9.521" height="9.521" style="fill:rgb(224,150,0);"/>
        </g>
    </g>
    <g transform="matrix(1,0,0,1,-1830.16,-429.067)">
        <g transform="matrix(0.748615,0,0,0.12985,783.055,471.088)">
            <rect x="1772.47" y="23.278" width="9.521" height="9.521" style="fill:rgb(224,150,0);"/>
        </g>
        <g transform="matrix(3.03745e-17,-0.496053,0.249526,1.52791e-17,2105.38,1359.31)">
            <rect x="1772.47" y="23.278" width="9.521" height="9.521" style="fill:white;"/>
        </g>
        <g transform="matrix(3.03745e-17,-0.496053,0.253455,1.55197e-17,2113.52,1359.31)">
            <rect x="1772.47" y="23.278" width="9.521" height="9.521" style="fill:white;"/>
        </g>
        <g transform="matrix(3.03745e-17,-0.496053,0.239389,1.46584e-17,2107.99,1359.31)">
            <rect x="1772.47" y="23.278" width="9.521" height="9.521"/>
        </g>
        <g transform="matrix(3.03745e-17,-0.496053,0.24823,1.51997e-17,2116.05,1359.31)">
            <rect x="1772.47" y="23.278" width="9.521" height="9.521"/>
        </g>
        <g transform="matrix(0.241567,0,0,0.12985,1679.48,473.494)">
            <rect x="1772.47" y="23.278" width="9.521" height="9.521" style="fill:rgb(224,150,0);"/>
        </g>
        <g transform="matrix(0.126689,0,0,0.12985,1892.53,473.494)">
            <rect x="1772.47" y="23.278" width="9.521" height="9.521" style="fill:rgb(224,150,0);"/>
        </g>
        <g transform="matrix(3.03745e-17,-0.496053,0.12985,7.95101e-18,2106.93,1359.31)">
            <rect x="1772.47" y="23.278" width="9.521" height="9.521" style="fill:rgb(224,150,0);"/>
        </g>
        <g transform="matrix(2.28562e-17,-0.37327,0.12985,7.95101e-18,2103.39,1141.68)">
            <rect x="1772.47" y="23.278" width="9.521" height="9.521" style="fill:rgb(224,150,0);"/>
        </g>
        <g transform="matrix(3.03745e-17,-0.496053,0.12985,7.95101e-18,2115.26,1359.31)">
            <rect x="1772.47" y="23.278" width="9.521" height="9.521" style="fill:rgb(224,150,0);"/>
        </g>
        <g transform="matrix(3.03745e-17,-0.496053,0.12985,7.95101e-18,2112.82,1359.31)">
            <rect x="1772.47" y="23.278" width="9.521" height="9.521" style="fill:rgb(224,150,0);"/>
        </g>
        <g transform="matrix(3.03745e-17,-0.496053,0.12985,7.95101e-18,2121.15,1359.31)">
            <rect x="1772.47" y="23.278" width="9.521" height="9.521" style="fill:rgb(224,150,0);"/>
        </g>
        <g transform="matrix(0.748615,0,0,0.12985,791.388,471.088)">
            <rect x="1772.47" y="23.278" width="9.521" height="9.521" style="fill:rgb(224,150,0);"/>
        </g>
        <g transform="matrix(0.748615,0,0,0.12985,783.055,477.047)">
            <rect x="1772.47" y="23.278" width="9.521" height="9.521" style="fill:rgb(224,150,0);"/>
        </g>
        <g transform="matrix(0.748615,0,0,0.12985,791.388,477.047)">
            <rect x="1772.47" y="23.278" width="9.521" height="9.521" style="fill:rgb(224,150,0);"/>
        </g>
    </g>
</svg>
