<?xml version="1.0" encoding="UTF-8" standalone="no"?>
<!DOCTYPE svg PUBLIC "-//W3C//DTD SVG 1.1//EN" "http://www.w3.org/Graphics/SVG/1.1/DTD/svg11.dtd">
<svg width="100%" height="100%" viewBox="0 0 343 305" version="1.1" xmlns="http://www.w3.org/2000/svg" xmlns:xlink="http://www.w3.org/1999/xlink" xml:space="preserve" xmlns:serif="http://www.serif.com/" style="fill-rule:evenodd;clip-rule:evenodd;stroke-linejoin:round;stroke-miterlimit:2;">
    <g transform="matrix(4.58949,0,0,1.97146,-8134.57,-45.891)">
        <rect x="1772.47" y="23.278" width="9.521" height="9.521" style="fill:rgb(224,150,0);"/>
    </g>
    <g transform="matrix(9.05001,0,0,0.29278,-16026.2,258.44)">
        <rect x="1772.47" y="23.278" width="9.521" height="9.521" style="fill:rgb(224,150,0);"/>
    </g>
    <g transform="matrix(1.01234,0,0,0.29278,-1703.1,292.64)">
        <rect x="1772.47" y="23.278" width="9.521" height="9.521" style="fill:rgb(224,150,0);"/>
    </g>
    <g transform="matrix(1.01234,0,0,0.29278,-1533.58,292.64)">
        <rect x="1772.47" y="23.278" width="9.521" height="9.521" style="fill:rgb(224,150,0);"/>
    </g>
    <g transform="matrix(0.294127,0,0,0.29278,-506.649,198.336)">
        <rect x="1772.47" y="23.278" width="9.521" height="9.521" style="fill:rgb(224,150,0);"/>
    </g>
    <g transform="matrix(0.294127,0,0,0.29278,-434.122,198.336)">
        <rect x="1772.47" y="23.278" width="9.521" height="9.521" style="fill:rgb(224,150,0);"/>
    </g>
    <g transform="matrix(0.294127,0,0,0.29278,-434.122,193.041)">
        <rect x="1772.47" y="23.278" width="9.521" height="9.521" style="fill:rgb(224,150,0);"/>
    </g>
    <g transform="matrix(0.294127,0,0,0.29278,-506.685,150.477)">
        <rect x="1772.47" y="23.278" width="9.521" height="9.521" style="fill:rgb(224,150,0);"/>
    </g>
    <g transform="matrix(0.294127,0,0,0.29278,-423.286,150.477)">
        <rect x="1772.47" y="23.278" width="9.521" height="9.521" style="fill:rgb(224,150,0);"/>
    </g>
    <g transform="matrix(0.294127,0,0,0.29278,-338.538,198.281)">
        <rect x="1772.47" y="23.278" width="9.521" height="9.521" style="fill:rgb(224,150,0);"/>
    </g>
    <g transform="matrix(0.294127,0,0,0.29278,-253.789,198.281)">
        <rect x="1772.47" y="23.278" width="9.521" height="9.521" style="fill:rgb(224,150,0);"/>
    </g>
    <g transform="matrix(0.294127,0,0,0.29278,-181.282,192.837)">
        <rect x="1772.47" y="23.278" width="9.521" height="9.521" style="fill:rgb(224,150,0);"/>
    </g>
    <g transform="matrix(0.294127,0,0,0.29278,-181.282,198.281)">
        <rect x="1772.47" y="23.278" width="9.521" height="9.521" style="fill:rgb(224,150,0);"/>
    </g>
    <g transform="matrix(0.294127,0,0,0.29278,-423.286,198.336)">
        <rect x="1772.47" y="23.278" width="9.521" height="9.521" style="fill:rgb(224,150,0);"/>
    </g>
    <g transform="matrix(0.294127,0,0,0.29278,-423.286,193.041)">
        <rect x="1772.47" y="23.278" width="9.521" height="9.521" style="fill:rgb(224,150,0);"/>
    </g>
    <g transform="matrix(1,0,0,1,-1882.99,-176.86)">
        <g transform="matrix(0.748615,0,0,0.12985,783.055,471.088)">
            <rect x="1772.47" y="23.278" width="9.521" height="9.521" style="fill:rgb(224,150,0);"/>
        </g>
        <g transform="matrix(3.03745e-17,-0.496053,0.249526,1.52791e-17,2105.38,1359.31)">
            <rect x="1772.47" y="23.278" width="9.521" height="9.521" style="fill:white;"/>
        </g>
        <g transform="matrix(3.03745e-17,-0.496053,0.253455,1.55197e-17,2113.52,1359.31)">
            <rect x="1772.47" y="23.278" width="9.521" height="9.521" style="fill:white;"/>
        </g>
        <g transform="matrix(3.03745e-17,-0.496053,0.239389,1.46584e-17,2107.99,1359.31)">
            <rect x="1772.47" y="23.278" width="9.521" height="9.521"/>
        </g>
        <g transform="matrix(3.03745e-17,-0.496053,0.24823,1.51997e-17,2116.05,1359.31)">
            <rect x="1772.47" y="23.278" width="9.521" height="9.521"/>
        </g>
        <g transform="matrix(0.241567,0,0,0.12985,1679.48,473.494)">
            <rect x="1772.47" y="23.278" width="9.521" height="9.521" style="fill:rgb(224,150,0);"/>
        </g>
        <g transform="matrix(0.126689,0,0,0.12985,1892.53,473.494)">
            <rect x="1772.47" y="23.278" width="9.521" height="9.521" style="fill:rgb(224,150,0);"/>
        </g>
        <g transform="matrix(3.03745e-17,-0.496053,0.12985,7.95101e-18,2106.93,1359.31)">
            <rect x="1772.47" y="23.278" width="9.521" height="9.521" style="fill:rgb(224,150,0);"/>
        </g>
        <g transform="matrix(2.28562e-17,-0.37327,0.12985,7.95101e-18,2103.39,1141.68)">
            <rect x="1772.47" y="23.278" width="9.521" height="9.521" style="fill:rgb(224,150,0);"/>
        </g>
        <g transform="matrix(3.03745e-17,-0.496053,0.12985,7.95101e-18,2115.26,1359.31)">
            <rect x="1772.47" y="23.278" width="9.521" height="9.521" style="fill:rgb(224,150,0);"/>
        </g>
        <g transform="matrix(3.03745e-17,-0.496053,0.12985,7.95101e-18,2112.82,1359.31)">
            <rect x="1772.47" y="23.278" width="9.521" height="9.521" style="fill:rgb(224,150,0);"/>
        </g>
        <g transform="matrix(3.03745e-17,-0.496053,0.12985,7.95101e-18,2121.15,1359.31)">
            <rect x="1772.47" y="23.278" width="9.521" height="9.521" style="fill:rgb(224,150,0);"/>
        </g>
        <g transform="matrix(0.748615,0,0,0.12985,791.388,471.088)">
            <rect x="1772.47" y="23.278" width="9.521" height="9.521" style="fill:rgb(224,150,0);"/>
        </g>
        <g transform="matrix(0.748615,0,0,0.12985,783.055,477.047)">
            <rect x="1772.47" y="23.278" width="9.521" height="9.521" style="fill:rgb(224,150,0);"/>
        </g>
        <g transform="matrix(0.748615,0,0,0.12985,791.388,477.047)">
            <rect x="1772.47" y="23.278" width="9.521" height="9.521" style="fill:rgb(224,150,0);"/>
        </g>
    </g>
    <g transform="matrix(1,0,0,1,-1927.65,-413.845)">
        <g transform="matrix(0.748615,0,0,0.12985,783.055,471.088)">
            <rect x="1772.47" y="23.278" width="9.521" height="9.521" style="fill:rgb(224,150,0);"/>
        </g>
        <g transform="matrix(3.03745e-17,-0.496053,0.249526,1.52791e-17,2105.38,1359.31)">
            <rect x="1772.47" y="23.278" width="9.521" height="9.521" style="fill:white;"/>
        </g>
        <g transform="matrix(3.03745e-17,-0.496053,0.253455,1.55197e-17,2113.52,1359.31)">
            <rect x="1772.47" y="23.278" width="9.521" height="9.521" style="fill:white;"/>
        </g>
        <g transform="matrix(3.03745e-17,-0.496053,0.239389,1.46584e-17,2107.99,1359.31)">
            <rect x="1772.47" y="23.278" width="9.521" height="9.521"/>
        </g>
        <g transform="matrix(3.03745e-17,-0.496053,0.24823,1.51997e-17,2116.05,1359.31)">
            <rect x="1772.47" y="23.278" width="9.521" height="9.521"/>
        </g>
        <g transform="matrix(0.241567,0,0,0.12985,1679.48,473.494)">
            <rect x="1772.47" y="23.278" width="9.521" height="9.521" style="fill:rgb(224,150,0);"/>
        </g>
        <g transform="matrix(0.126689,0,0,0.12985,1892.53,473.494)">
            <rect x="1772.47" y="23.278" width="9.521" height="9.521" style="fill:rgb(224,150,0);"/>
        </g>
        <g transform="matrix(3.03745e-17,-0.496053,0.12985,7.95101e-18,2106.93,1359.31)">
            <rect x="1772.47" y="23.278" width="9.521" height="9.521" style="fill:rgb(224,150,0);"/>
        </g>
        <g transform="matrix(2.28562e-17,-0.37327,0.12985,7.95101e-18,2103.39,1141.68)">
            <rect x="1772.47" y="23.278" width="9.521" height="9.521" style="fill:rgb(224,150,0);"/>
        </g>
        <g transform="matrix(3.03745e-17,-0.496053,0.12985,7.95101e-18,2115.26,1359.31)">
            <rect x="1772.47" y="23.278" width="9.521" height="9.521" style="fill:rgb(224,150,0);"/>
        </g>
        <g transform="matrix(3.03745e-17,-0.496053,0.12985,7.95101e-18,2112.82,1359.31)">
            <rect x="1772.47" y="23.278" width="9.521" height="9.521" style="fill:rgb(224,150,0);"/>
        </g>
        <g transform="matrix(3.03745e-17,-0.496053,0.12985,7.95101e-18,2121.15,1359.31)">
            <rect x="1772.47" y="23.278" width="9.521" height="9.521" style="fill:rgb(224,150,0);"/>
        </g>
        <g transform="matrix(0.748615,0,0,0.12985,791.388,471.088)">
            <rect x="1772.47" y="23.278" width="9.521" height="9.521" style="fill:rgb(224,150,0);"/>
        </g>
        <g transform="matrix(0.748615,0,0,0.12985,783.055,477.047)">
            <rect x="1772.47" y="23.278" width="9.521" height="9.521" style="fill:rgb(224,150,0);"/>
        </g>
        <g transform="matrix(0.748615,0,0,0.12985,791.388,477.047)">
            <rect x="1772.47" y="23.278" width="9.521" height="9.521" style="fill:rgb(224,150,0);"/>
        </g>
    </g>
    <g transform="matrix(1,0,0,1,-2057.94,-319.171)">
        <g transform="matrix(0.748615,0,0,0.12985,783.055,471.088)">
            <rect x="1772.47" y="23.278" width="9.521" height="9.521" style="fill:rgb(224,150,0);"/>
        </g>
        <g transform="matrix(3.03745e-17,-0.496053,0.249526,1.52791e-17,2105.38,1359.31)">
            <rect x="1772.47" y="23.278" width="9.521" height="9.521" style="fill:white;"/>
        </g>
        <g transform="matrix(3.03745e-17,-0.496053,0.253455,1.55197e-17,2113.52,1359.31)">
            <rect x="1772.47" y="23.278" width="9.521" height="9.521" style="fill:white;"/>
        </g>
        <g transform="matrix(3.03745e-17,-0.496053,0.239389,1.46584e-17,2107.99,1359.31)">
            <rect x="1772.47" y="23.278" width="9.521" height="9.521"/>
        </g>
        <g transform="matrix(3.03745e-17,-0.496053,0.24823,1.51997e-17,2116.05,1359.31)">
            <rect x="1772.47" y="23.278" width="9.521" height="9.521"/>
        </g>
        <g transform="matrix(0.241567,0,0,0.12985,1679.48,473.494)">
            <rect x="1772.47" y="23.278" width="9.521" height="9.521" style="fill:rgb(224,150,0);"/>
        </g>
        <g transform="matrix(0.126689,0,0,0.12985,1892.53,473.494)">
            <rect x="1772.47" y="23.278" width="9.521" height="9.521" style="fill:rgb(224,150,0);"/>
        </g>
        <g transform="matrix(3.03745e-17,-0.496053,0.12985,7.95101e-18,2106.93,1359.31)">
            <rect x="1772.47" y="23.278" width="9.521" height="9.521" style="fill:rgb(224,150,0);"/>
        </g>
        <g transform="matrix(2.28562e-17,-0.37327,0.12985,7.95101e-18,2103.39,1141.68)">
            <rect x="1772.47" y="23.278" width="9.521" height="9.521" style="fill:rgb(224,150,0);"/>
        </g>
        <g transform="matrix(3.03745e-17,-0.496053,0.12985,7.95101e-18,2115.26,1359.31)">
            <rect x="1772.47" y="23.278" width="9.521" height="9.521" style="fill:rgb(224,150,0);"/>
        </g>
        <g transform="matrix(3.03745e-17,-0.496053,0.12985,7.95101e-18,2112.82,1359.31)">
            <rect x="1772.47" y="23.278" width="9.521" height="9.521" style="fill:rgb(224,150,0);"/>
        </g>
        <g transform="matrix(3.03745e-17,-0.496053,0.12985,7.95101e-18,2121.15,1359.31)">
            <rect x="1772.47" y="23.278" width="9.521" height="9.521" style="fill:rgb(224,150,0);"/>
        </g>
        <g transform="matrix(0.748615,0,0,0.12985,791.388,471.088)">
            <rect x="1772.47" y="23.278" width="9.521" height="9.521" style="fill:rgb(224,150,0);"/>
        </g>
        <g transform="matrix(0.748615,0,0,0.12985,783.055,477.047)">
            <rect x="1772.47" y="23.278" width="9.521" height="9.521" style="fill:rgb(224,150,0);"/>
        </g>
        <g transform="matrix(0.748615,0,0,0.12985,791.388,477.047)">
            <rect x="1772.47" y="23.278" width="9.521" height="9.521" style="fill:rgb(224,150,0);"/>
        </g>
    </g>
    <g transform="matrix(1.19697,0,0,1,-76.0585,-322.673)">
        <rect x="63.543" y="322.79" width="36.639" height="18.653" style="fill:rgb(224,150,2);"/>
    </g>
    <g transform="matrix(9.02577,0,0,0.285246,-15755.9,55.3543)">
        <rect x="1772.47" y="23.278" width="9.521" height="9.521" style="fill:rgb(224,150,0);"/>
    </g>
    <g transform="matrix(0.288275,0,0,0.285246,-424.652,51.2562)">
        <rect x="1772.47" y="23.278" width="9.521" height="9.521" style="fill:rgb(224,150,0);"/>
    </g>
    <g transform="matrix(0.288275,0,0,0.285246,-412.379,51.2562)">
        <rect x="1772.47" y="23.278" width="9.521" height="9.521" style="fill:rgb(224,150,0);"/>
    </g>
    <g transform="matrix(0.288275,0,0,0.285246,-424.652,56.7366)">
        <rect x="1772.47" y="23.278" width="9.521" height="9.521" style="fill:rgb(224,150,0);"/>
    </g>
    <g transform="matrix(0.288275,0,0,0.285246,-328.073,151.539)">
        <rect x="1772.47" y="23.278" width="9.521" height="9.521" style="fill:rgb(224,150,0);"/>
    </g>
    <g transform="matrix(0.288275,0,0,0.285246,-231.493,99.6394)">
        <rect x="1772.47" y="23.278" width="9.521" height="9.521" style="fill:rgb(224,150,0);"/>
    </g>
    <g transform="matrix(0.288275,0,0,0.285246,-253.234,99.6394)">
        <rect x="1772.47" y="23.278" width="9.521" height="9.521" style="fill:rgb(224,150,0);"/>
    </g>
    <g transform="matrix(0.288275,0,0,0.285246,-274.974,99.6394)">
        <rect x="1772.47" y="23.278" width="9.521" height="9.521" style="fill:rgb(224,150,0);"/>
    </g>
    <g transform="matrix(0.288275,0,0,0.285246,-296.715,99.6394)">
        <rect x="1772.47" y="23.278" width="9.521" height="9.521" style="fill:rgb(224,150,0);"/>
    </g>
    <g transform="matrix(0.288275,0,0,0.285246,-412.379,56.7366)">
        <rect x="1772.47" y="23.278" width="9.521" height="9.521" style="fill:rgb(224,150,0);"/>
    </g>
</svg>
