<svg width="204" height="57" viewBox="0 0 204 57" fill="none" xmlns="http://www.w3.org/2000/svg">
<path fill-rule="evenodd" clip-rule="evenodd" d="M204 28.493C204 16.079 195.289 6 184.557 6H115V50.985H184.557C195.289 50.985 204 40.907 204 28.493Z" fill="#ECE8E1"/>
<path d="M9.29382 45.3072C6.29829 45.3072 4.13485 44.5648 2.80351 43.0798C1.47216 41.5948 0.806488 39.201 0.806488 35.8982V32.6722H7.2968V36.7815C7.2968 38.4201 7.82166 39.2394 8.87137 39.2394C9.46024 39.2394 9.86988 39.073 10.1003 38.7401C10.3307 38.3817 10.4459 37.7928 10.4459 36.9735C10.4459 35.8982 10.3179 35.0149 10.0619 34.3236C9.80587 33.6068 9.47304 33.0179 9.06339 32.557C8.67935 32.0706 7.97527 31.3281 6.95116 30.3296L4.10925 27.4877C1.90741 25.337 0.806488 22.956 0.806488 20.3445C0.806488 17.5282 1.44656 15.3904 2.7267 13.931C4.03244 12.446 5.92705 11.7036 8.41052 11.7036C11.3804 11.7036 13.5183 12.4972 14.824 14.0846C16.1298 15.6464 16.7826 18.1043 16.7826 21.4582H10.0619L10.0235 19.1924C10.0235 18.7571 9.89548 18.4115 9.63946 18.1555C9.40903 17.8994 9.07619 17.7714 8.64095 17.7714C8.12889 17.7714 7.74485 17.9122 7.48882 18.1939C7.23279 18.4755 7.10478 18.8595 7.10478 19.346C7.10478 20.4213 7.71925 21.535 8.94818 22.6872L12.7886 26.374C13.6847 27.2445 14.4272 28.0765 15.016 28.8702C15.6049 29.6383 16.0786 30.56 16.437 31.6353C16.7954 32.6851 16.9747 33.9396 16.9747 35.3989C16.9747 38.6505 16.373 41.1212 15.1697 42.811C13.9919 44.4751 12.0333 45.3072 9.29382 45.3072ZM19.1613 45V12.0108H32.3723V18.3859H25.882V24.7994H32.1035V31.0209H25.882V38.5865H32.7948V45H19.1613ZM34.1047 45L37.2923 12.0108H48.4679L51.6171 45H45.3572L44.8963 39.6618H40.9023L40.5182 45H34.1047ZM41.4015 34.4004H44.3971L42.9377 17.6178H42.6305L41.4015 34.4004ZM61.462 45.3072C58.4665 45.3072 56.3031 44.5648 54.9717 43.0798C53.6404 41.5948 52.9747 39.201 52.9747 35.8982V32.6722H59.465V36.7815C59.465 38.4201 59.9899 39.2394 61.0396 39.2394C61.6284 39.2394 62.0381 39.073 62.2685 38.7401C62.4989 38.3817 62.6142 37.7928 62.6142 36.9735C62.6142 35.8982 62.4861 35.0149 62.2301 34.3236C61.9741 33.6068 61.6413 33.0179 61.2316 32.557C60.8476 32.0706 60.1435 31.3281 59.1194 30.3296L56.2775 27.4877C54.0756 25.337 52.9747 22.956 52.9747 20.3445C52.9747 17.5282 53.6148 15.3904 54.8949 13.931C56.2007 12.446 58.0953 11.7036 60.5787 11.7036C63.5487 11.7036 65.6865 12.4972 66.9922 14.0846C68.298 15.6464 68.9509 18.1043 68.9509 21.4582H62.2301L62.1917 19.1924C62.1917 18.7571 62.0637 18.4115 61.8077 18.1555C61.5772 17.8994 61.2444 17.7714 60.8092 17.7714C60.2971 17.7714 59.9131 17.9122 59.657 18.1939C59.401 18.4755 59.273 18.8595 59.273 19.346C59.273 20.4213 59.8875 21.535 61.1164 22.6872L64.9568 26.374C65.8529 27.2445 66.5954 28.0765 67.1843 28.8702C67.7731 29.6383 68.2468 30.56 68.6052 31.6353C68.9637 32.6851 69.1429 33.9396 69.1429 35.3989C69.1429 38.6505 68.5412 41.1212 67.3379 42.811C66.1601 44.4751 64.2015 45.3072 61.462 45.3072ZM79.2024 45.3072C76.5397 45.3072 74.5171 44.5007 73.1345 42.8878C71.752 41.2492 71.0607 38.9577 71.0607 36.0134V20.3061C71.0607 17.4642 71.752 15.3263 73.1345 13.8926C74.5171 12.4332 76.5397 11.7036 79.2024 11.7036C81.8651 11.7036 83.8877 12.4332 85.2702 13.8926C86.6528 15.3263 87.3441 17.4642 87.3441 20.3061V36.0134C87.3441 38.9833 86.6528 41.2748 85.2702 42.8878C83.8877 44.5007 81.8651 45.3072 79.2024 45.3072ZM79.2024 39.2394C79.7912 39.2394 80.1881 38.9833 80.3929 38.4713C80.5977 37.9592 80.7001 37.2424 80.7001 36.3206V20.1909C80.7001 19.474 80.5977 18.8979 80.3929 18.4627C80.2137 18.0018 79.8296 17.7714 79.2408 17.7714C78.1399 17.7714 77.5894 18.6035 77.5894 20.2677V36.3591C77.5894 37.3064 77.7046 38.0232 77.935 38.5097C78.1655 38.9961 78.5879 39.2394 79.2024 39.2394ZM90.0066 45V12.0108H96.8041L99.838 27.7949V12.0108H106.213V45H99.7612L96.4585 28.4862V45H90.0066Z" fill="#E5E5E5"/>
<path d="M124.463 45V11.9964H133.407C135.808 11.9964 137.552 12.584 138.639 13.7591C139.739 14.9217 140.289 16.8469 140.289 19.5347V20.9786C140.289 22.5288 140.008 23.7852 139.446 24.7478C138.895 25.7104 138.052 26.3417 136.914 26.6417C138.402 27.0168 139.396 27.8981 139.896 29.2858C140.408 30.6609 140.664 32.3424 140.664 34.3301C140.664 36.4678 140.464 38.3368 140.064 39.9369C139.664 41.5371 138.939 42.781 137.889 43.6686C136.839 44.5562 135.345 45 133.407 45H124.463ZM130.913 24.429H132.264C132.876 24.429 133.27 24.1915 133.445 23.7164C133.62 23.2414 133.707 22.6726 133.707 22.01V18.6909C133.707 17.6283 133.239 17.0969 132.301 17.0969H130.913V24.429ZM131.57 39.1869C133.282 39.1869 134.139 38.3743 134.139 36.7491V32.6236C134.139 31.686 133.995 30.9485 133.707 30.4109C133.432 29.8608 132.907 29.5858 132.132 29.5858H130.913V39.1494C131.188 39.1744 131.407 39.1869 131.57 39.1869ZM142.84 45V11.9964H156.041V18.3721H149.553V24.804H155.779V31.011H149.553V38.568H156.472V45H142.84ZM161.498 45V18.3346H157.579V11.9964H172.018V18.3346H168.099V45H161.498ZM172.468 45L175.656 11.9964H186.851L189.982 45H183.738L183.269 39.6744H179.294L178.881 45H172.468ZM179.762 34.4051H182.763L181.319 17.622H181.019L179.762 34.4051Z" fill="#E09600"/>
</svg>
