<svg width="218" height="56" viewBox="0 0 218 56" fill="none" xmlns="http://www.w3.org/2000/svg">
<path fill-rule="evenodd" clip-rule="evenodd" d="M217.836 27.6536C217.836 15.2396 207.76 5.16058 195.347 5.16058H114.892V50.1456H195.347C207.76 50.1456 217.836 40.0676 217.836 27.6536Z" fill="#ECE8E1"/>
<path d="M9.29382 44.3072C6.29829 44.3072 4.13485 43.5648 2.80351 42.0798C1.47216 40.5948 0.806488 38.201 0.806488 34.8982V31.6722H7.2968V35.7815C7.2968 37.4201 7.82166 38.2394 8.87137 38.2394C9.46024 38.2394 9.86988 38.073 10.1003 37.7401C10.3307 37.3817 10.4459 36.7928 10.4459 35.9735C10.4459 34.8982 10.3179 34.0149 10.0619 33.3236C9.80587 32.6068 9.47304 32.0179 9.06339 31.557C8.67935 31.0706 7.97527 30.3281 6.95116 29.3296L4.10925 26.4877C1.90741 24.337 0.806488 21.956 0.806488 19.3445C0.806488 16.5282 1.44656 14.3904 2.7267 12.931C4.03244 11.446 5.92705 10.7036 8.41052 10.7036C11.3804 10.7036 13.5183 11.4972 14.824 13.0846C16.1298 14.6464 16.7826 17.1043 16.7826 20.4582H10.0619L10.0235 18.1924C10.0235 17.7571 9.89548 17.4115 9.63946 17.1555C9.40903 16.8994 9.07619 16.7714 8.64095 16.7714C8.12889 16.7714 7.74485 16.9122 7.48882 17.1939C7.23279 17.4755 7.10478 17.8595 7.10478 18.346C7.10478 19.4213 7.71925 20.535 8.94818 21.6872L12.7886 25.374C13.6847 26.2445 14.4272 27.0765 15.016 27.8702C15.6049 28.6383 16.0786 29.56 16.437 30.6353C16.7954 31.6851 16.9747 32.9396 16.9747 34.3989C16.9747 37.6505 16.373 40.1212 15.1697 41.811C13.9919 43.4751 12.0333 44.3072 9.29382 44.3072ZM19.1613 44V11.0108H32.3723V17.3859H25.882V23.7994H32.1035V30.0209H25.882V37.5865H32.7948V44H19.1613ZM34.1047 44L37.2923 11.0108H48.4679L51.6171 44H45.3572L44.8963 38.6618H40.9023L40.5182 44H34.1047ZM41.4015 33.4004H44.3971L42.9377 16.6178H42.6305L41.4015 33.4004ZM61.462 44.3072C58.4665 44.3072 56.3031 43.5648 54.9717 42.0798C53.6404 40.5948 52.9747 38.201 52.9747 34.8982V31.6722H59.465V35.7815C59.465 37.4201 59.9899 38.2394 61.0396 38.2394C61.6284 38.2394 62.0381 38.073 62.2685 37.7401C62.4989 37.3817 62.6142 36.7928 62.6142 35.9735C62.6142 34.8982 62.4861 34.0149 62.2301 33.3236C61.9741 32.6068 61.6413 32.0179 61.2316 31.557C60.8476 31.0706 60.1435 30.3281 59.1194 29.3296L56.2775 26.4877C54.0756 24.337 52.9747 21.956 52.9747 19.3445C52.9747 16.5282 53.6148 14.3904 54.8949 12.931C56.2007 11.446 58.0953 10.7036 60.5787 10.7036C63.5487 10.7036 65.6865 11.4972 66.9922 13.0846C68.298 14.6464 68.9509 17.1043 68.9509 20.4582H62.2301L62.1917 18.1924C62.1917 17.7571 62.0637 17.4115 61.8077 17.1555C61.5772 16.8994 61.2444 16.7714 60.8092 16.7714C60.2971 16.7714 59.9131 16.9122 59.657 17.1939C59.401 17.4755 59.273 17.8595 59.273 18.346C59.273 19.4213 59.8875 20.535 61.1164 21.6872L64.9568 25.374C65.8529 26.2445 66.5954 27.0765 67.1843 27.8702C67.7731 28.6383 68.2468 29.56 68.6052 30.6353C68.9637 31.6851 69.1429 32.9396 69.1429 34.3989C69.1429 37.6505 68.5412 40.1212 67.3379 41.811C66.1601 43.4751 64.2015 44.3072 61.462 44.3072ZM79.2024 44.3072C76.5397 44.3072 74.5171 43.5007 73.1345 41.8878C71.752 40.2492 71.0607 37.9577 71.0607 35.0134V19.3061C71.0607 16.4642 71.752 14.3263 73.1345 12.8926C74.5171 11.4332 76.5397 10.7036 79.2024 10.7036C81.8651 10.7036 83.8877 11.4332 85.2702 12.8926C86.6528 14.3263 87.3441 16.4642 87.3441 19.3061V35.0134C87.3441 37.9833 86.6528 40.2748 85.2702 41.8878C83.8877 43.5007 81.8651 44.3072 79.2024 44.3072ZM79.2024 38.2394C79.7912 38.2394 80.1881 37.9833 80.3929 37.4713C80.5977 36.9592 80.7001 36.2424 80.7001 35.3206V19.1909C80.7001 18.474 80.5977 17.8979 80.3929 17.4627C80.2137 17.0018 79.8296 16.7714 79.2408 16.7714C78.1399 16.7714 77.5894 17.6035 77.5894 19.2677V35.3591C77.5894 36.3064 77.7046 37.0232 77.935 37.5097C78.1655 37.9961 78.5879 38.2394 79.2024 38.2394ZM90.0066 44V11.0108H96.8041L99.838 26.7949V11.0108H106.213V44H99.7612L96.4585 27.4862V44H90.0066Z" fill="#E5E5E5"/>
<path d="M120.744 11.0108H129.692C132.099 11.0108 133.839 11.5997 134.915 12.7774C136.016 13.9551 136.566 15.8753 136.566 18.538V19.9974C136.566 23.1465 135.44 25.0283 133.187 25.6428C134.569 26.0012 135.542 26.8333 136.105 28.1391C136.669 29.4448 136.95 31.173 136.95 33.3236C136.95 36.8312 136.425 39.4939 135.376 41.3117C134.326 43.1039 132.431 44 129.692 44H120.744V11.0108ZM128.54 23.4153C129.103 23.4153 129.487 23.2105 129.692 22.8009C129.897 22.3656 129.999 21.764 129.999 20.9959V17.6931C129.999 16.6178 129.525 16.0801 128.578 16.0801H127.196V23.4153H128.54ZM127.848 38.201C129.564 38.201 130.422 37.3817 130.422 35.7431V31.6338C130.422 30.6353 130.268 29.8801 129.961 29.368C129.679 28.8559 129.167 28.5999 128.425 28.5999H127.196V38.1626L127.848 38.201ZM139.121 44V11.0108H152.332V17.3859H145.841V23.7994H152.063V30.0209H145.841V37.5865H152.754V44H139.121ZM157.789 44V17.3475H153.872V11.0108H168.312V17.3475H164.395V44H157.789ZM169.291 44L172.478 11.0108H183.654L186.803 44H180.543L180.082 38.6618H176.088L175.704 44H169.291ZM176.588 33.4004H179.583L178.124 16.6178H177.817L176.588 33.4004Z" fill="#E09600"/>
<path d="M194.016 26.2324H207.857L204.396 30.1012L200.937 33.9593L197.476 30.1012L194.016 26.2324Z" fill="#808080"/>
</svg>
