<?xml version="1.0" encoding="UTF-8" standalone="no"?>
<!DOCTYPE svg PUBLIC "-//W3C//DTD SVG 1.1//EN" "http://www.w3.org/Graphics/SVG/1.1/DTD/svg11.dtd">
<svg width="100%" height="100%" viewBox="0 0 490 30" version="1.1" xmlns="http://www.w3.org/2000/svg" xmlns:xlink="http://www.w3.org/1999/xlink" xml:space="preserve" xmlns:serif="http://www.serif.com/" style="fill-rule:evenodd;clip-rule:evenodd;stroke-linejoin:round;stroke-miterlimit:2;">
    <g>
        <path d="M175.45,29.586C175.901,29.586 176.219,29.56 176.405,29.507C176.591,29.454 176.71,29.414 176.763,29.387L176.763,28.591C176.763,28.06 176.757,27.53 176.743,26.999C176.73,26.468 176.723,25.937 176.723,25.407C176.723,24.664 176.73,23.934 176.743,23.217C176.757,22.501 176.763,21.758 176.763,20.988L176.763,17.565C176.763,16.424 176.75,15.296 176.723,14.181L176.723,1.363C175.954,1.204 175.078,1.125 174.096,1.125C173.088,1.125 172.132,1.204 171.23,1.363C171.204,2.027 171.184,2.644 171.17,3.214C171.157,3.785 171.151,4.349 171.151,4.906C171.151,5.862 171.17,6.797 171.21,7.713C171.25,8.628 171.27,9.617 171.27,10.678C171.27,11.129 171.243,11.594 171.19,12.071C171.137,12.549 171.071,12.814 170.991,12.868C170.965,12.868 170.872,12.715 170.713,12.41C170.553,12.105 170.361,11.733 170.135,11.295C169.91,10.857 169.664,10.366 169.399,9.822C169.134,9.278 168.882,8.761 168.643,8.27C168.404,7.779 168.192,7.348 168.006,6.976C167.82,6.605 167.701,6.352 167.648,6.22C167.409,5.663 167.203,5.205 167.031,4.846C166.858,4.488 166.699,4.163 166.553,3.871C166.407,3.579 166.254,3.274 166.095,2.956C165.936,2.637 165.763,2.239 165.578,1.761C165.578,1.708 165.438,1.655 165.16,1.602C164.881,1.549 164.556,1.503 164.184,1.463C163.813,1.423 163.441,1.397 163.07,1.383C162.698,1.37 162.433,1.363 162.274,1.363C161.955,1.363 161.643,1.377 161.338,1.403C161.033,1.43 160.748,1.47 160.482,1.523C160.35,3.221 160.257,4.966 160.204,6.757C160.151,8.548 160.124,10.36 160.124,12.191C160.124,14.685 160.144,17.074 160.184,19.356C160.224,21.638 160.244,24.04 160.244,26.561L160.244,29.348C160.854,29.348 161.484,29.387 162.134,29.467C162.785,29.547 163.428,29.586 164.065,29.586C164.357,29.586 164.649,29.573 164.941,29.547C165.233,29.52 165.525,29.467 165.816,29.387C165.79,28.936 165.777,28.425 165.777,27.855L165.777,26.083C165.777,24.969 165.783,23.814 165.797,22.62C165.81,21.426 165.83,20.338 165.856,19.356C165.883,18.374 165.916,17.565 165.956,16.928C165.996,16.291 166.029,15.972 166.055,15.972C166.108,15.972 166.181,16.099 166.274,16.351C166.367,16.603 166.467,16.875 166.573,17.167L166.971,18.361C167.581,20.059 168.318,21.831 169.18,23.675C170.043,25.519 170.912,27.424 171.787,29.387C172.318,29.387 172.929,29.42 173.619,29.487C174.309,29.553 174.919,29.586 175.45,29.586Z" style="fill:rgb(224,150,0);fill-rule:nonzero;"/>
        <path d="M195.791,5.822C195.472,4.893 194.928,4.084 194.159,3.394C193.389,2.81 192.52,2.365 191.552,2.06C190.583,1.755 189.588,1.576 188.566,1.523C187.544,1.47 186.523,1.543 185.501,1.742C184.479,1.941 183.53,2.252 182.655,2.677C182.31,2.889 182.005,3.128 181.739,3.394C180.916,4.322 180.366,5.39 180.087,6.598C179.809,7.805 179.656,9.006 179.629,10.2C179.497,12.297 179.477,14.387 179.57,16.47C179.663,18.553 179.749,20.63 179.828,22.7C179.855,23.469 179.928,24.232 180.047,24.989C180.167,25.745 180.412,26.455 180.784,27.118C181.023,27.649 181.328,28.08 181.699,28.412C182.071,28.744 182.489,29.016 182.953,29.228C183.418,29.44 183.909,29.593 184.426,29.686C184.944,29.779 185.481,29.852 186.038,29.905C186.808,29.958 187.571,29.958 188.327,29.905C189.083,29.852 189.833,29.719 190.576,29.507C191.399,29.294 192.175,28.996 192.905,28.611C193.635,28.226 194.225,27.715 194.676,27.079C195.154,26.309 195.512,25.453 195.751,24.511C195.99,23.569 196.136,22.633 196.189,21.705L196.308,20.391C196.415,19.011 196.454,17.658 196.428,16.331C196.401,15.004 196.428,13.637 196.507,12.231C196.534,11.567 196.541,10.91 196.527,10.26C196.514,9.61 196.481,8.953 196.428,8.29C196.375,7.865 196.302,7.447 196.209,7.036C196.116,6.624 195.977,6.22 195.791,5.822ZM191.532,17.445C191.532,17.498 191.525,17.724 191.512,18.122C191.498,18.52 191.479,18.984 191.452,19.515C191.399,20.073 191.379,20.517 191.392,20.849C191.406,21.18 191.399,21.466 191.372,21.705C191.346,21.943 191.279,22.162 191.173,22.361C191.067,22.56 190.895,22.819 190.656,23.138C190.258,23.589 189.767,23.914 189.183,24.113C188.599,24.312 188.015,24.392 187.432,24.352C186.848,24.312 186.304,24.146 185.799,23.854C185.295,23.562 184.91,23.151 184.645,22.62C184.38,21.744 184.22,20.822 184.167,19.854C184.114,18.885 184.021,17.936 183.889,17.007C183.836,15.893 183.829,14.778 183.869,13.664C183.909,12.549 184.035,11.488 184.247,10.479C184.565,9.365 185.189,8.449 186.118,7.732C186.542,7.414 187.033,7.188 187.591,7.056C188.148,6.923 188.692,6.963 189.223,7.175C189.833,7.467 190.318,7.918 190.676,8.529C191.034,9.139 191.24,9.816 191.293,10.559C191.319,11.01 191.352,11.494 191.392,12.012C191.432,12.529 191.452,12.801 191.452,12.828L191.532,15.535L191.532,17.445Z" style="fill:rgb(224,150,0);fill-rule:nonzero;"/>
        <path d="M216.291,2.757C215.973,2.571 215.562,2.451 215.057,2.398C214.553,2.345 214.022,2.332 213.465,2.359C212.908,2.385 212.357,2.432 211.813,2.498C211.269,2.564 210.825,2.611 210.48,2.637C210.4,5.716 210.354,8.9 210.34,12.191C210.327,15.481 210.254,18.719 210.121,21.904C209.989,22.514 209.697,22.992 209.246,23.337C208.794,23.682 208.304,23.867 207.773,23.894C207.242,23.921 206.731,23.788 206.24,23.496C205.749,23.204 205.411,22.74 205.225,22.103C204.694,15.495 204.575,8.98 204.867,2.558L204.867,2.518C204.469,2.412 204.031,2.339 203.553,2.299C203.076,2.259 202.585,2.239 202.08,2.239C201.576,2.239 201.079,2.252 200.588,2.279C200.097,2.305 199.652,2.319 199.254,2.319L199.214,2.319L199.254,2.359C199.307,5.862 199.294,9.391 199.214,12.947C199.135,16.503 199.095,20.033 199.095,23.536C199.148,24.756 199.5,25.798 200.15,26.661C200.8,27.523 201.609,28.213 202.578,28.731C203.547,29.248 204.628,29.606 205.822,29.805C207.016,30.003 208.171,30.05 209.285,29.945C211.196,29.759 212.709,29.056 213.823,27.835C214.938,26.614 215.601,25.128 215.814,23.377C216.185,19.953 216.398,16.51 216.451,13.047C216.504,9.583 216.451,6.153 216.291,2.757Z" style="fill:rgb(224,150,0);fill-rule:nonzero;"/>
        <path d="M234.603,29.586C235.054,29.586 235.372,29.56 235.558,29.507C235.744,29.454 235.863,29.414 235.916,29.387L235.916,28.591C235.916,28.06 235.909,27.53 235.896,26.999C235.883,26.468 235.876,25.937 235.876,25.407C235.876,24.664 235.883,23.934 235.896,23.217C235.909,22.501 235.916,21.758 235.916,20.988L235.916,17.565C235.916,16.424 235.903,15.296 235.876,14.181L235.876,1.363C235.107,1.204 234.231,1.125 233.249,1.125C232.241,1.125 231.285,1.204 230.383,1.363C230.356,2.027 230.337,2.644 230.323,3.214C230.31,3.785 230.303,4.349 230.303,4.906C230.303,5.862 230.323,6.797 230.363,7.713C230.403,8.628 230.423,9.617 230.423,10.678C230.423,11.129 230.396,11.594 230.343,12.071C230.29,12.549 230.224,12.814 230.144,12.868C230.118,12.868 230.025,12.715 229.866,12.41C229.706,12.105 229.514,11.733 229.288,11.295C229.063,10.857 228.817,10.366 228.552,9.822C228.287,9.278 228.034,8.761 227.796,8.27C227.557,7.779 227.344,7.348 227.159,6.976C226.973,6.605 226.853,6.352 226.8,6.22C226.562,5.663 226.356,5.205 226.183,4.846C226.011,4.488 225.852,4.163 225.706,3.871C225.56,3.579 225.407,3.274 225.248,2.956C225.089,2.637 224.916,2.239 224.73,1.761C224.73,1.708 224.591,1.655 224.312,1.602C224.034,1.549 223.709,1.503 223.337,1.463C222.966,1.423 222.594,1.397 222.223,1.383C221.851,1.37 221.586,1.363 221.426,1.363C221.108,1.363 220.796,1.377 220.491,1.403C220.186,1.43 219.901,1.47 219.635,1.523C219.502,3.221 219.41,4.966 219.357,6.757C219.303,8.548 219.277,10.36 219.277,12.191C219.277,14.685 219.297,17.074 219.337,19.356C219.376,21.638 219.396,24.04 219.396,26.561L219.396,29.348C220.007,29.348 220.637,29.387 221.287,29.467C221.937,29.547 222.581,29.586 223.218,29.586C223.51,29.586 223.802,29.573 224.094,29.547C224.385,29.52 224.677,29.467 224.969,29.387C224.943,28.936 224.929,28.425 224.929,27.855L224.929,26.083C224.929,24.969 224.936,23.814 224.949,22.62C224.963,21.426 224.983,20.338 225.009,19.356C225.036,18.374 225.069,17.565 225.109,16.928C225.148,16.291 225.182,15.972 225.208,15.972C225.261,15.972 225.334,16.099 225.427,16.351C225.52,16.603 225.619,16.875 225.726,17.167L226.124,18.361C226.734,20.059 227.47,21.831 228.333,23.675C229.195,25.519 230.065,27.424 230.94,29.387C231.471,29.387 232.081,29.42 232.771,29.487C233.461,29.553 234.072,29.586 234.603,29.586Z" style="fill:rgb(224,150,0);fill-rule:nonzero;"/>
        <path d="M255.979,10.519C256.35,8.529 256.191,6.883 255.501,5.583C254.811,4.283 253.829,3.301 252.555,2.637C251.918,2.345 251.222,2.106 250.465,1.921C249.709,1.735 248.94,1.622 248.157,1.582C247.374,1.543 246.598,1.569 245.828,1.662C245.058,1.755 244.355,1.934 243.718,2.199C242.444,2.73 241.363,3.539 240.474,4.628C239.585,5.716 238.981,6.923 238.663,8.25C238.344,9.577 238.364,10.944 238.723,12.35C239.081,13.757 239.87,15.044 241.091,16.211C241.463,16.53 241.874,16.808 242.325,17.047C242.776,17.286 243.267,17.459 243.798,17.565C244.355,17.671 244.952,17.784 245.589,17.903C246.226,18.022 246.817,18.202 247.361,18.44C247.905,18.679 248.376,18.991 248.774,19.376C249.172,19.761 249.411,20.272 249.49,20.908C249.649,21.837 249.47,22.527 248.953,22.978C248.435,23.43 247.825,23.662 247.122,23.675C246.418,23.688 245.755,23.483 245.131,23.058C244.508,22.633 244.169,21.997 244.116,21.147C243.214,21.174 242.206,21.154 241.091,21.088C239.976,21.021 238.955,21.054 238.026,21.187L238.026,21.426C237.946,22.7 238.172,23.834 238.703,24.829C239.233,25.825 239.95,26.667 240.852,27.357C241.754,28.047 242.783,28.585 243.937,28.969C245.092,29.354 246.253,29.56 247.42,29.586C248.243,29.613 249.046,29.54 249.829,29.367C250.611,29.195 251.341,28.923 252.018,28.551C252.695,28.18 253.298,27.702 253.829,27.118C254.36,26.535 254.785,25.831 255.103,25.009C255.421,24.319 255.654,23.595 255.8,22.839C255.946,22.083 255.999,21.333 255.959,20.59C255.919,19.847 255.78,19.124 255.541,18.421C255.302,17.717 254.944,17.061 254.466,16.45C253.696,15.309 252.708,14.367 251.5,13.624C250.293,12.881 248.986,12.43 247.58,12.27C247.022,12.191 246.505,12.045 246.027,11.833C245.549,11.62 245.204,11.196 244.992,10.559C244.966,10.373 244.946,10.194 244.932,10.021C244.919,9.849 244.939,9.67 244.992,9.484C245.098,8.741 245.45,8.237 246.047,7.971C246.644,7.706 247.261,7.64 247.898,7.772C248.535,7.905 249.079,8.21 249.53,8.688C249.981,9.165 250.127,9.763 249.968,10.479C250.897,10.744 251.892,10.857 252.953,10.817C254.015,10.778 255.01,10.678 255.939,10.519L255.979,10.519Z" style="fill:rgb(224,150,0);fill-rule:nonzero;"/>
        <path d="M283.246,23.974C281.442,24.027 279.69,24.007 277.992,23.914C276.293,23.821 274.568,23.775 272.817,23.775L272.777,23.735C272.724,23.098 272.678,22.302 272.638,21.346C272.598,20.391 272.644,19.529 272.777,18.759C272.91,18.653 273.162,18.586 273.534,18.56C273.905,18.533 274.323,18.52 274.787,18.52C275.252,18.52 275.736,18.513 276.24,18.5C276.745,18.487 277.196,18.427 277.594,18.321C277.567,17.339 277.581,16.397 277.634,15.495C277.687,14.592 277.647,13.69 277.514,12.788L277.514,12.748C276.692,12.722 275.869,12.708 275.046,12.708C274.223,12.708 273.414,12.682 272.618,12.629L272.578,12.589C272.392,11.872 272.346,11.109 272.439,10.3C272.532,9.491 272.565,8.701 272.538,7.931L272.578,7.892L272.698,7.892C273.573,7.812 274.449,7.772 275.325,7.772C276.201,7.772 277.076,7.779 277.952,7.792C278.828,7.805 279.697,7.792 280.559,7.752C281.422,7.713 282.278,7.6 283.127,7.414L283.127,7.374C283.127,6.445 283.16,5.503 283.226,4.548C283.293,3.593 283.26,2.65 283.127,1.722C283.127,1.695 282.862,1.669 282.331,1.642C281.8,1.615 281.097,1.602 280.221,1.602C279.345,1.602 278.337,1.615 277.196,1.642C276.055,1.669 274.874,1.695 273.653,1.722C272.432,1.748 271.218,1.781 270.011,1.821C268.803,1.861 267.682,1.907 266.647,1.96C266.514,4.243 266.435,6.512 266.408,8.767C266.382,11.023 266.382,13.279 266.408,15.535C266.435,17.79 266.474,20.053 266.528,22.322C266.581,24.591 266.607,26.879 266.607,29.188C269.181,29.401 271.868,29.46 274.668,29.367C277.468,29.275 280.221,29.241 282.928,29.268C283.14,28.472 283.26,27.616 283.286,26.7C283.313,25.785 283.299,24.902 283.246,24.053L283.246,23.974Z" style="fill:rgb(229,229,229);fill-rule:nonzero;"/>
        <path d="M302.393,10.519C302.765,8.529 302.606,6.883 301.916,5.583C301.226,4.283 300.244,3.301 298.97,2.637C298.333,2.345 297.636,2.106 296.88,1.921C296.124,1.735 295.354,1.622 294.571,1.582C293.789,1.543 293.012,1.569 292.243,1.662C291.473,1.755 290.77,1.934 290.133,2.199C288.859,2.73 287.778,3.539 286.889,4.628C286,5.716 285.396,6.923 285.077,8.25C284.759,9.577 284.779,10.944 285.137,12.35C285.495,13.757 286.285,15.044 287.506,16.211C287.877,16.53 288.289,16.808 288.74,17.047C289.191,17.286 289.682,17.459 290.213,17.565C290.77,17.671 291.367,17.784 292.004,17.903C292.641,18.022 293.231,18.202 293.775,18.44C294.319,18.679 294.79,18.991 295.188,19.376C295.586,19.761 295.825,20.272 295.905,20.908C296.064,21.837 295.885,22.527 295.368,22.978C294.85,23.43 294.24,23.662 293.536,23.675C292.833,23.688 292.17,23.483 291.546,23.058C290.922,22.633 290.584,21.997 290.531,21.147C289.629,21.174 288.62,21.154 287.506,21.088C286.391,21.021 285.369,21.054 284.441,21.187L284.441,21.426C284.361,22.7 284.587,23.834 285.117,24.829C285.648,25.825 286.365,26.667 287.267,27.357C288.169,28.047 289.197,28.585 290.352,28.969C291.506,29.354 292.667,29.56 293.835,29.586C294.658,29.613 295.46,29.54 296.243,29.367C297.026,29.195 297.756,28.923 298.433,28.551C299.109,28.18 299.713,27.702 300.244,27.118C300.775,26.535 301.199,25.831 301.518,25.009C301.836,24.319 302.068,23.595 302.214,22.839C302.36,22.083 302.413,21.333 302.373,20.59C302.334,19.847 302.194,19.124 301.956,18.421C301.717,17.717 301.358,17.061 300.881,16.45C300.111,15.309 299.123,14.367 297.915,13.624C296.708,12.881 295.401,12.43 293.994,12.27C293.437,12.191 292.919,12.045 292.442,11.833C291.964,11.62 291.619,11.196 291.407,10.559C291.38,10.373 291.36,10.194 291.347,10.021C291.334,9.849 291.354,9.67 291.407,9.484C291.513,8.741 291.865,8.237 292.462,7.971C293.059,7.706 293.676,7.64 294.313,7.772C294.95,7.905 295.494,8.21 295.945,8.688C296.396,9.165 296.542,9.763 296.383,10.479C297.311,10.744 298.307,10.857 299.368,10.817C300.43,10.778 301.425,10.678 302.354,10.519L302.393,10.519Z" style="fill:rgb(229,229,229);fill-rule:nonzero;"/>
        <path d="M322.536,9.842C322.456,8.33 322.111,7.042 321.501,5.981C320.89,4.919 320.114,4.037 319.172,3.334C318.23,2.631 317.148,2.1 315.928,1.742C314.707,1.383 313.453,1.151 312.166,1.045C310.879,0.939 309.592,0.952 308.305,1.085C307.018,1.217 305.83,1.43 304.742,1.722C304.822,3.924 304.868,6.233 304.881,8.648C304.895,11.063 304.901,13.465 304.901,15.853L304.901,22.839C304.901,25.108 304.941,27.211 305.021,29.148C305.472,29.202 306.003,29.241 306.613,29.268C307.223,29.294 307.84,29.301 308.464,29.288C309.088,29.275 309.685,29.248 310.255,29.208C310.826,29.168 311.297,29.095 311.668,28.989C311.695,28.989 311.715,28.983 311.728,28.969C311.741,28.956 311.761,28.949 311.788,28.949L311.788,28.91C311.735,26.972 311.702,25.433 311.688,24.292C311.675,23.151 311.668,22.242 311.668,21.565L311.668,20.013C311.668,19.655 311.655,19.29 311.629,18.918C312.902,19.13 314.15,19.071 315.37,18.739C316.591,18.407 317.706,17.87 318.714,17.127C319.723,16.384 320.565,15.481 321.242,14.42C321.919,13.358 322.337,12.191 322.496,10.917C322.522,10.758 322.536,10.592 322.536,10.419L322.536,9.842ZM315.569,8.17C315.914,8.383 316.186,8.648 316.385,8.966C316.584,9.285 316.717,9.63 316.784,10.001C316.85,10.373 316.837,10.744 316.744,11.116C316.651,11.488 316.498,11.819 316.286,12.111C315.967,12.43 315.589,12.662 315.151,12.808C314.714,12.954 314.262,13.053 313.798,13.106C313.334,13.159 312.863,13.193 312.385,13.206C311.907,13.219 311.456,13.239 311.031,13.266L310.912,13.266C310.779,12.868 310.693,12.423 310.653,11.932C310.613,11.441 310.587,10.93 310.574,10.4C310.56,9.869 310.56,9.338 310.574,8.807C310.587,8.276 310.58,7.772 310.554,7.295C310.58,7.268 310.62,7.255 310.673,7.255C311.522,7.042 312.385,7.009 313.261,7.155C314.136,7.301 314.906,7.64 315.569,8.17Z" style="fill:rgb(229,229,229);fill-rule:nonzero;"/>
        <path d="M340.449,5.822C340.13,4.893 339.586,4.084 338.817,3.394C338.047,2.81 337.178,2.365 336.209,2.06C335.241,1.755 334.245,1.576 333.224,1.523C332.202,1.47 331.18,1.543 330.159,1.742C329.137,1.941 328.188,2.252 327.312,2.677C326.967,2.889 326.662,3.128 326.397,3.394C325.574,4.322 325.024,5.39 324.745,6.598C324.466,7.805 324.314,9.006 324.287,10.2C324.154,12.297 324.135,14.387 324.227,16.47C324.32,18.553 324.407,20.63 324.486,22.7C324.513,23.469 324.586,24.232 324.705,24.989C324.824,25.745 325.07,26.455 325.441,27.118C325.68,27.649 325.986,28.08 326.357,28.412C326.729,28.744 327.147,29.016 327.611,29.228C328.075,29.44 328.566,29.593 329.084,29.686C329.601,29.779 330.139,29.852 330.696,29.905C331.466,29.958 332.229,29.958 332.985,29.905C333.741,29.852 334.491,29.719 335.234,29.507C336.057,29.294 336.833,28.996 337.563,28.611C338.292,28.226 338.883,27.715 339.334,27.079C339.812,26.309 340.17,25.453 340.409,24.511C340.648,23.569 340.794,22.633 340.847,21.705L340.966,20.391C341.072,19.011 341.112,17.658 341.086,16.331C341.059,15.004 341.086,13.637 341.165,12.231C341.192,11.567 341.198,10.91 341.185,10.26C341.172,9.61 341.139,8.953 341.086,8.29C341.032,7.865 340.959,7.447 340.867,7.036C340.774,6.624 340.634,6.22 340.449,5.822ZM336.189,17.445C336.189,17.498 336.183,17.724 336.169,18.122C336.156,18.52 336.136,18.984 336.11,19.515C336.057,20.073 336.037,20.517 336.05,20.849C336.063,21.18 336.057,21.466 336.03,21.705C336.004,21.943 335.937,22.162 335.831,22.361C335.725,22.56 335.552,22.819 335.314,23.138C334.916,23.589 334.425,23.914 333.841,24.113C333.257,24.312 332.673,24.392 332.089,24.352C331.505,24.312 330.961,24.146 330.457,23.854C329.953,23.562 329.568,23.151 329.303,22.62C329.037,21.744 328.878,20.822 328.825,19.854C328.772,18.885 328.679,17.936 328.546,17.007C328.493,15.893 328.487,14.778 328.527,13.664C328.566,12.549 328.692,11.488 328.905,10.479C329.223,9.365 329.847,8.449 330.776,7.732C331.2,7.414 331.691,7.188 332.248,7.056C332.806,6.923 333.35,6.963 333.881,7.175C334.491,7.467 334.975,7.918 335.333,8.529C335.692,9.139 335.897,9.816 335.95,10.559C335.977,11.01 336.01,11.494 336.05,12.012C336.09,12.529 336.11,12.801 336.11,12.828L336.189,15.535L336.189,17.445Z" style="fill:rgb(229,229,229);fill-rule:nonzero;"/>
        <path d="M362.82,29.269C362.422,28.18 361.931,27.125 361.347,26.103C360.763,25.082 360.153,24.08 359.516,23.098C358.879,22.116 358.229,21.141 357.566,20.172C356.902,19.203 356.292,18.228 355.734,17.246L355.734,17.206L355.933,17.206C357.207,17.127 358.262,16.769 359.098,16.132C359.934,15.495 360.604,14.699 361.108,13.743C361.931,12.363 362.322,10.937 362.283,9.464C362.243,7.991 361.878,6.644 361.188,5.424C360.498,4.203 359.529,3.181 358.282,2.359C357.035,1.536 355.628,1.085 354.063,1.005C352.125,0.793 350.268,0.78 348.49,0.965C346.712,1.151 345.079,1.35 343.593,1.562C343.646,1.907 343.693,2.564 343.733,3.533C343.773,4.501 343.806,5.669 343.832,7.036C343.859,8.403 343.892,9.902 343.932,11.534C343.972,13.166 343.998,14.811 344.011,16.47C344.025,18.129 344.031,19.734 344.031,21.287L344.031,25.407C344.031,26.601 344.018,27.563 343.991,28.293C343.965,29.022 343.925,29.387 343.872,29.387C344.005,29.361 344.356,29.361 344.927,29.387C345.497,29.414 346.141,29.42 346.858,29.407C347.574,29.394 348.297,29.361 349.027,29.308C349.757,29.255 350.347,29.135 350.798,28.949C350.772,28.445 350.732,27.769 350.679,26.919C350.626,26.07 350.579,25.174 350.54,24.232C350.5,23.29 350.48,22.375 350.48,21.486C350.48,20.597 350.52,19.847 350.599,19.237L350.679,19.356C351.236,20.046 351.794,20.842 352.351,21.744C352.908,22.647 353.426,23.562 353.903,24.491C354.381,25.42 354.819,26.309 355.217,27.158C355.615,28.007 355.947,28.737 356.212,29.348L356.252,29.348C357.446,29.427 358.614,29.434 359.755,29.367C360.896,29.301 361.931,29.268 362.86,29.268L362.82,29.268L362.82,29.269ZM349.405,7.135C350.334,6.764 351.25,6.558 352.152,6.518C353.054,6.479 353.797,6.724 354.381,7.255C354.753,7.547 355.018,7.938 355.177,8.429C355.336,8.92 355.389,9.411 355.336,9.902C355.283,10.393 355.117,10.844 354.839,11.255C354.56,11.667 354.169,11.925 353.664,12.032C353.028,12.138 352.351,12.178 351.634,12.151C350.918,12.124 350.254,12.085 349.644,12.032L349.604,12.032C349.551,11.74 349.518,11.381 349.505,10.957C349.491,10.532 349.485,10.094 349.485,9.643C349.485,9.192 349.478,8.748 349.465,8.31C349.452,7.872 349.432,7.48 349.405,7.135Z" style="fill:rgb(229,229,229);fill-rule:nonzero;"/>
        <path d="M380.096,1.722C377.363,1.43 374.556,1.29 371.677,1.304C368.798,1.317 366.005,1.337 363.298,1.363C363.298,1.39 363.304,1.403 363.318,1.403C363.331,1.403 363.338,1.416 363.338,1.443C363.284,2.08 363.258,2.743 363.258,3.433C363.258,4.123 363.265,4.767 363.278,5.364C363.291,5.961 363.318,6.472 363.357,6.897C363.397,7.321 363.444,7.586 363.497,7.693C363.656,7.746 363.935,7.772 364.333,7.772C364.731,7.772 365.169,7.779 365.646,7.792C366.124,7.805 366.602,7.832 367.079,7.872C367.557,7.912 367.955,8.011 368.274,8.17L368.313,8.21C368.473,11.925 368.572,15.097 368.612,17.724C368.652,20.351 368.665,22.507 368.652,24.193C368.638,25.878 368.619,27.145 368.592,27.994C368.565,28.843 368.565,29.321 368.592,29.427C369.07,29.348 369.587,29.308 370.144,29.308L371.836,29.308C372.407,29.308 372.977,29.301 373.548,29.288C374.119,29.275 374.643,29.228 375.12,29.148L375.12,29.069C375.067,26.176 375.027,23.662 375.001,21.525C374.974,19.389 374.948,17.558 374.921,16.032C374.895,14.506 374.875,13.259 374.862,12.29C374.848,11.322 374.842,10.539 374.842,9.942C374.842,9.345 374.848,8.907 374.862,8.628C374.875,8.349 374.895,8.144 374.921,8.011C374.921,7.985 374.928,7.965 374.941,7.951C374.954,7.938 374.961,7.918 374.961,7.892L375.081,7.892C376.328,7.839 377.323,7.799 378.066,7.772C378.809,7.746 379.433,7.786 379.937,7.892C380.07,6.936 380.143,5.888 380.156,4.747C380.169,3.606 380.149,2.597 380.096,1.722Z" style="fill:rgb(229,229,229);fill-rule:nonzero;"/>
        <path d="M398.965,10.519C399.336,8.529 399.177,6.883 398.487,5.583C397.797,4.283 396.815,3.301 395.541,2.637C394.904,2.345 394.208,2.106 393.451,1.921C392.695,1.735 391.925,1.622 391.143,1.582C390.36,1.543 389.583,1.569 388.814,1.662C388.044,1.755 387.341,1.934 386.704,2.199C385.43,2.73 384.349,3.539 383.46,4.628C382.571,5.716 381.967,6.923 381.649,8.25C381.33,9.577 381.35,10.944 381.708,12.35C382.067,13.757 382.856,15.044 384.077,16.211C384.448,16.53 384.86,16.808 385.311,17.047C385.762,17.286 386.253,17.459 386.784,17.565C387.341,17.671 387.938,17.784 388.575,17.903C389.212,18.022 389.802,18.202 390.346,18.44C390.89,18.679 391.361,18.991 391.76,19.376C392.158,19.761 392.396,20.272 392.476,20.908C392.635,21.837 392.456,22.527 391.939,22.978C391.421,23.43 390.811,23.662 390.108,23.675C389.404,23.688 388.741,23.483 388.117,23.058C387.494,22.633 387.155,21.997 387.102,21.147C386.2,21.174 385.191,21.154 384.077,21.088C382.962,21.021 381.941,21.054 381.012,21.187L381.012,21.426C380.932,22.7 381.158,23.834 381.688,24.829C382.219,25.825 382.936,26.667 383.838,27.357C384.74,28.047 385.769,28.585 386.923,28.969C388.077,29.354 389.238,29.56 390.406,29.586C391.229,29.613 392.032,29.54 392.814,29.367C393.597,29.195 394.327,28.923 395.004,28.551C395.681,28.18 396.284,27.702 396.815,27.118C397.346,26.535 397.77,25.831 398.089,25.009C398.407,24.319 398.639,23.595 398.785,22.839C398.931,22.083 398.984,21.333 398.945,20.59C398.905,19.847 398.766,19.124 398.527,18.421C398.288,17.717 397.93,17.061 397.452,16.45C396.682,15.309 395.694,14.367 394.486,13.624C393.279,12.881 391.972,12.43 390.565,12.27C390.008,12.191 389.491,12.045 389.013,11.833C388.535,11.62 388.19,11.196 387.978,10.559C387.951,10.373 387.931,10.194 387.918,10.021C387.905,9.849 387.925,9.67 387.978,9.484C388.084,8.741 388.436,8.237 389.033,7.971C389.63,7.706 390.247,7.64 390.884,7.772C391.521,7.905 392.065,8.21 392.516,8.688C392.967,9.165 393.113,9.763 392.954,10.479C393.883,10.744 394.878,10.857 395.939,10.817C397.001,10.778 397.996,10.678 398.925,10.519L398.965,10.519Z" style="fill:rgb(229,229,229);fill-rule:nonzero;"/>
        <rect x="431.803" y="5.685" width="9.699" height="19.398" style="fill:white;"/>
        <rect x="441.502" y="5.685" width="9.699" height="19.398"/>
        <rect x="465.75" y="5.685" width="9.699" height="19.398" style="fill:white;"/>
        <rect x="475.449" y="5.685" width="9.698" height="19.398"/>
        <path d="M426.954,10.534L426.954,0.835L456.051,0.835L456.051,10.534L460.9,10.534L460.9,0.835L489.997,0.835L489.997,29.932L460.9,29.932L460.9,15.384L456.051,15.384L456.051,29.932L426.954,29.932L426.954,15.384L417.255,15.384L417.255,25.083L412.406,25.083L412.406,10.534L426.954,10.534ZM431.803,25.083L451.201,25.083L451.201,5.685L431.803,5.685L431.803,25.083ZM465.75,25.083L485.147,25.083L485.147,5.685L465.75,5.685L465.75,25.083Z" style="fill:rgb(224,150,0);"/>
        <g>
            <clipPath id="_clip1">
                <rect x="-0.272" y="0.791" width="104.78" height="28.757"/>
            </clipPath>
            <g clip-path="url(#_clip1)">
                <path d="M19.092,0.986L19.092,10.531L9.546,10.531L9.546,0.986L0,0.986L0,29.623L9.546,29.623L9.546,20.077L19.092,20.077L19.092,29.623L28.637,29.623L28.637,0.986L19.092,0.986Z" style="fill:rgb(224,150,0);fill-rule:nonzero;"/>
                <path d="M50.724,0.986L50.724,20.077L41.179,20.077L41.179,0.986L31.633,0.986L31.633,29.623L60.27,29.623L60.27,0.986L50.724,0.986Z" style="fill:rgb(224,150,0);fill-rule:nonzero;"/>
                <rect x="94.886" y="0.986" width="9.545" height="28.637" style="fill:rgb(229,229,229);"/>
                <path d="M82.344,10.531L91.89,10.531L91.89,29.623L63.253,29.623L63.253,0.986L82.344,0.986L82.344,10.531ZM80.909,16.256L74.26,16.256L74.26,22.905L80.909,22.905L80.909,16.256Z" style="fill:rgb(224,150,0);fill-rule:nonzero;"/>
            </g>
        </g>
        <path d="M136.312,29.548L132.259,23.891L129.05,29.548L120.423,29.548L127.926,17.873L120.102,7.04L128.929,7.04L132.981,12.697L136.231,7.04L144.857,7.04L137.194,18.515L145.138,29.548L136.312,29.548Z" style="fill:rgb(229,229,229);fill-rule:nonzero;"/>
    </g>
</svg>
