<svg width="306" height="84" viewBox="0 0 306 84" fill="none" xmlns="http://www.w3.org/2000/svg">
<g clip-path="url(#clip0_161_321)">
<path d="M304.676 0H276.827V82.9805H304.676V0Z" fill="#E5E5E5"/>
<path fill-rule="evenodd" clip-rule="evenodd" d="M212.465 2.78791e-06H184.615V27.6604H212.465V2.78791e-06ZM212.465 27.6604H184.615V55.3209H212.465V27.6604ZM212.465 55.3209H184.615V82.9813H212.465V55.3209ZM212.465 82.9813V55.3209L216.651 55.3194V63.5177H236.05V55.3194H240.314V82.9828L212.465 82.9813ZM268.165 55.3194H240.314V82.9828L268.165 82.9813V55.3194ZM268.165 27.6589H240.314V55.3194H268.165V27.6589ZM240.314 -0.00305176H212.465V27.6604L240.314 27.6589V-0.00305176ZM214.558 55.3194H216.651V44.2497H236.05V55.3194H240.314V27.6589L212.465 27.6604V55.3209L214.558 55.3194Z" fill="#E09600"/>
<path fill-rule="evenodd" clip-rule="evenodd" d="M0.0769043 0H27.9275V27.6604H55.7766V0H83.6272V82.766L55.7766 82.9828V55.3224H27.9275V82.9828H0.0769043V0Z" fill="#E09600"/>
<path fill-rule="evenodd" clip-rule="evenodd" d="M92.3274 -0.00305176V82.9828H175.878V2.78791e-06L148.027 -0.00305176V55.3224H120.178V2.78791e-06L92.3274 -0.00305176Z" fill="#E09600"/>
</g>
<defs>
<clipPath id="clip0_161_321">
<rect width="306" height="84" fill="white"/>
</clipPath>
</defs>
</svg>
